<svg width="22" height="22" viewBox="0 0 22 22" fill="none" xmlns="http://www.w3.org/2000/svg">
<path d="M17.002 0H5.00195C4.34534 0 3.69516 0.129329 3.08854 0.380602C2.48191 0.631876 1.93071 1.00017 1.46642 1.46447C0.528737 2.40215 0.00195313 3.67392 0.00195312 5V17C0.00195312 17.6566 0.131282 18.3068 0.382555 18.9134C0.633829 19.52 1.00213 20.0712 1.46642 20.5355C2.4041 21.4732 3.67587 22 5.00195 22H17.002C17.6586 22 18.3087 21.8707 18.9154 21.6194C19.522 21.3681 20.0732 20.9998 20.5375 20.5355C21.0018 20.0712 21.3701 19.52 21.6214 18.9134C21.8726 18.3068 22.002 17.6566 22.002 17V5C22.002 4.34339 21.8726 3.69321 21.6214 3.08658C21.3701 2.47995 21.0018 1.92876 20.5375 1.46447C20.0732 1.00017 19.522 0.631876 18.9154 0.380602C18.3087 0.129329 17.6586 0 17.002 0ZM11.002 4C11.9909 4 12.9576 4.29324 13.7798 4.84265C14.602 5.39206 15.2429 6.17295 15.6214 7.08658C15.9998 8.00021 16.0988 9.00555 15.9059 9.97545C15.713 10.9454 15.2367 11.8363 14.5375 12.5355C13.8382 13.2348 12.9473 13.711 11.9774 13.9039C11.0075 14.0969 10.0022 13.9978 9.08854 13.6194C8.17491 13.241 7.39401 12.6001 6.8446 11.7779C6.2952 10.9556 6.00195 9.98891 6.00195 9C6.00195 7.67392 6.52874 6.40215 7.46642 5.46447C8.4041 4.52678 9.67587 4 11.002 4ZM4.00195 3C4.19973 3 4.39307 3.05865 4.55752 3.16853C4.72197 3.27841 4.85015 3.43459 4.92583 3.61732C5.00152 3.80004 5.02132 4.00111 4.98274 4.19509C4.94415 4.38907 4.84891 4.56725 4.70906 4.70711C4.56921 4.84696 4.39102 4.9422 4.19704 4.98079C4.00306 5.01937 3.802 4.99957 3.61927 4.92388C3.43654 4.84819 3.28036 4.72002 3.17048 4.55557C3.0606 4.39112 3.00195 4.19778 3.00195 4C3.00195 3.73478 3.10731 3.48043 3.29485 3.29289C3.48238 3.10536 3.73674 3 4.00195 3ZM18.002 19H4.00195V17H18.002V19Z" fill="#252B2F"/>
</svg>
