<svg width="332" height="277" viewBox="0 0 332 277" fill="none" xmlns="http://www.w3.org/2000/svg">
<path d="M218.192 260.542C219.31 261.198 219.923 262.207 220.015 263.282L218.298 263.647C218.265 262.978 217.922 262.424 217.356 262.092C216.418 261.541 215.518 261.81 214.926 262.817L211.005 269.495L209.419 268.564L213.267 262.01C214.409 260.065 216.385 259.48 218.192 260.542Z" fill="#252B2F"/>
<path d="M200.119 246.274C202.126 248.746 201.729 252.345 199.244 254.361C196.76 256.378 193.201 256.031 191.195 253.558C189.188 251.086 189.57 247.52 192.068 245.494C194.552 243.477 198.123 243.814 200.119 246.274ZM198.773 247.408C197.351 245.656 195.084 245.477 193.245 246.97C191.431 248.442 191.15 250.71 192.561 252.449C193.973 254.189 196.228 254.378 198.054 252.895C199.893 251.403 200.185 249.147 198.773 247.408Z" fill="#252B2F"/>
<path d="M188.353 227.776L177.865 231.704L177.219 229.981L187.708 226.053L188.353 227.776Z" fill="#252B2F"/>
<path d="M183.726 212.781L172.538 213.3L172.479 212.022L179.924 205.749L172.204 206.108L172.118 204.27L183.306 203.75L183.366 205.029L175.921 211.301L183.641 210.942L183.726 212.781Z" fill="#252B2F"/>
<path d="M190.847 171.461L182.638 166.639L180.791 169.784L179.342 168.933L183.97 161.056L185.418 161.907L183.57 165.052L191.779 169.874L190.847 171.461Z" fill="#252B2F"/>
<path d="M202.626 154.966L195.671 146.187L197.113 145.044L199.945 148.618L204.084 145.34L201.252 141.765L202.694 140.623L209.649 149.402L208.207 150.544L205.127 146.656L200.988 149.935L204.068 153.823L202.626 154.966Z" fill="#252B2F"/>
<path d="M224.275 140.775L220.962 130.077L228.084 127.871L228.581 129.476L223.216 131.137L224.101 133.995L229.023 132.471L229.501 134.015L224.579 135.539L225.536 138.626L230.977 136.941L231.474 138.546L224.275 140.775Z" fill="#252B2F"/>
<path d="M263.631 137.131L263.702 125.342L265.416 125.917L265.311 134.184L270.149 127.503L271.363 127.91L271.197 136.157L276.096 129.497L277.81 130.071L270.761 139.521L269.548 139.114L269.693 130.877L264.845 137.538L263.631 137.131Z" fill="#252B2F"/>
<path d="M289.392 148.703L300.46 143.786L301.386 144.67L296.959 155.93L295.525 154.56L296.403 152.412L292.92 149.086L290.804 150.051L289.392 148.703ZM294.488 148.371L297.045 150.813L298.856 146.369L294.488 148.371Z" fill="#252B2F"/>
<path d="M306.713 168.658L316.561 163.323L317.437 164.941L307.59 170.276L306.713 168.658Z" fill="#252B2F"/>
<path d="M313.772 185.566L323.087 183.603L322.335 180.033L323.979 179.687L325.863 188.626L324.219 188.973L323.467 185.403L314.151 187.366L313.772 185.566Z" fill="#252B2F"/>
<path d="M315.975 205.52L327.084 206.942L326.851 208.768L317.408 207.559L316.738 212.796L315.071 212.583L315.975 205.52Z" fill="#252B2F"/>
<path d="M311.43 226.211L321.726 230.62L321.002 232.311L310.706 227.903L311.43 226.211Z" fill="#252B2F"/>
<path d="M302.247 242.319C303.366 240.94 304.599 240.437 306.183 240.465L306.365 242.221C305.276 242.141 304.372 242.417 303.535 243.448C302.759 244.404 302.677 245.368 303.373 245.933C305.41 247.587 307.69 242.595 310.795 245.116C312.323 246.356 312.21 248.324 310.909 249.927C309.981 251.07 308.738 251.586 307.579 251.593L307.396 249.837C308.358 249.794 309.045 249.506 309.61 248.811C310.316 247.941 310.369 247.139 309.735 246.625C307.897 245.133 305.53 250.054 302.3 247.432C300.735 246.162 300.724 244.195 302.247 242.319Z" fill="#252B2F"/>
<path d="M287.118 257.009L292.127 265.105L295.229 263.186L296.113 264.615L288.344 269.421L287.46 267.993L290.562 266.073L285.554 257.977L287.118 257.009Z" fill="#252B2F"/>
<circle cx="250" cy="198" r="41" fill="#C1331D"/>
<path d="M250 186.333C250 183.157 250.782 181.646 253.333 180.5" stroke="white" stroke-width="2" stroke-miterlimit="10"/>
<path d="M250 214.667C252.761 214.667 255 212.428 255 209.667C255 206.905 252.761 204.667 250 204.667C247.239 204.667 245 206.905 245 209.667C245 212.428 247.239 214.667 250 214.667Z" stroke="white" stroke-width="2" stroke-miterlimit="10" stroke-linecap="square"/>
<path d="M245 205.5C247.761 205.5 250 203.261 250 200.5C250 197.739 247.761 195.5 245 195.5C242.239 195.5 240 197.739 240 200.5C240 203.261 242.239 205.5 245 205.5Z" stroke="white" stroke-width="2" stroke-miterlimit="10" stroke-linecap="square"/>
<path d="M255 205.5C257.761 205.5 260 203.261 260 200.5C260 197.739 257.761 195.5 255 195.5C252.239 195.5 250 197.739 250 200.5C250 203.261 252.239 205.5 255 205.5Z" stroke="white" stroke-width="2" stroke-miterlimit="10" stroke-linecap="square"/>
<path d="M250 196.333C252.761 196.333 255 194.095 255 191.333C255 188.572 252.761 186.333 250 186.333C247.239 186.333 245 188.572 245 191.333C245 194.095 247.239 196.333 250 196.333Z" stroke="white" stroke-width="2" stroke-miterlimit="10" stroke-linecap="square"/>
<path d="M245.416 189.332C244.646 187.564 242.885 186.333 240.833 186.333C238.071 186.333 235.833 188.572 235.833 191.333C235.833 194.095 238.071 196.333 240.833 196.333C242.885 196.333 244.646 195.102 245.416 193.335" stroke="white" stroke-width="2" stroke-miterlimit="10"/>
<path d="M254.583 189.332C255.354 187.564 257.115 186.333 259.166 186.333C261.928 186.333 264.166 188.572 264.166 191.333C264.166 194.095 261.928 196.333 259.166 196.333C257.115 196.333 255.354 195.102 254.583 193.335" stroke="white" stroke-width="2" stroke-miterlimit="10"/>
<g clip-path="url(#clip0_1278_29)">
<circle cx="250" cy="198" r="41" fill="#C1331D"/>
<path d="M238.093 189.364H262.028" stroke="white" stroke-width="2" stroke-miterlimit="10"/>
<path d="M250.063 203.182C243.062 203.182 237.532 197.243 238.031 190.26L238.835 179H261.29L262.094 190.26C262.593 197.243 257.063 203.182 250.063 203.182Z" stroke="white" stroke-width="2" stroke-miterlimit="10" stroke-linecap="square"/>
<path d="M250.062 203.182V217" stroke="white" stroke-width="2" stroke-miterlimit="10" stroke-linecap="square"/>
<path d="M241.428 217H258.7" stroke="white" stroke-width="2" stroke-miterlimit="10" stroke-linecap="square"/>
</g>
<path fill-rule="evenodd" clip-rule="evenodd" d="M129.931 146.867C122.544 137.623 116.05 127.128 111.573 122.406C110.098 120.85 108.012 119.162 109.055 121.91C111.945 129.521 117.139 137.802 123.609 143.992C118.176 143.228 111.378 144.652 105.822 146.878C105.137 147.152 102.316 148.01 101.382 149.083C101.034 149.481 100.946 149.91 101.325 150.349C101.541 150.599 101.91 150.726 102.413 150.743C103.877 150.792 108.163 149.764 112.361 148.805C118.59 147.382 123.47 146.656 129.931 146.867Z" fill="#252B2F"/>
<path fill-rule="evenodd" clip-rule="evenodd" d="M69.6767 71.8484C63.1623 73.0997 56.6605 73.5143 50.0603 73.2464C55.0119 86.7166 64.0206 98.7763 74.0811 108.868C86.2366 121.062 100.986 131.247 115.849 138.572C120.473 140.851 122.335 142.159 126.472 145.297C98.3429 139.392 52.7748 104.765 46.1099 72.5733C8.80556 68.2613 -15.4387 30.2369 12.3939 0.0345156C-6.78284 27.9989 4.64954 61.8739 45.5405 69.0842C45.1352 65.6494 45.2023 62.2562 45.8119 58.9428C47.2538 51.1032 49.6126 43.5378 57.251 37.6024C67.8472 29.3684 85.1814 29.9476 91.1998 43.3674C98.4381 59.5095 83.5617 69.1827 69.6767 71.8484ZM49.8515 69.7296C56.7785 70.0108 64.0074 69.439 70.7774 67.9942C81.688 65.6661 91.1345 59.318 89.2923 48.8278C88.1524 42.3352 83.835 38.3231 78.1264 36.8771C57.5634 31.669 46.3746 55.1855 49.8515 69.7296Z" fill="#252B2F"/>
<defs>
<clipPath id="clip0_1278_29">
<rect width="82" height="82" fill="white" transform="translate(209 157)"/>
</clipPath>
</defs>
</svg>
