<svg width="442" height="64" viewBox="0 0 442 64" fill="none" xmlns="http://www.w3.org/2000/svg">
<g clip-path="url(#clip0_1289_207)">
<path d="M25.2002 63.2001C20.5002 62.5001 19.9002 58.8001 20.2002 34.6001L20.5002 12.3001L17.0002 12.2001C7.40017 11.9001 1.90017 10.8001 0.900166 8.8001C-0.899834 5.5001 0.200166 2.6001 3.50017 1.9001C9.20017 0.700098 19.0002 0.900098 19.0002 2.3001C19.0002 3.2001 19.2002 3.2001 19.8002 2.3001C20.3002 1.5001 24.5002 1.1001 33.5002 1.1001C50.0002 1.1001 51.8002 1.4001 52.7002 4.8001C53.1002 6.4001 52.9002 7.5001 52.2002 7.8001C51.5002 8.0001 51.0002 8.8001 51.0002 9.5001C51.0002 11.1001 47.8002 12.0001 41.8002 12.0001C38.4002 12.0001 36.4002 12.6001 35.0002 14.0001C33.1002 15.9001 33.0002 17.2001 33.2002 38.0001C33.3002 53.6001 33.0002 60.3001 32.1002 61.4001C30.7002 63.1001 28.3002 63.7001 25.2002 63.2001Z" fill="#242B30"/>
<path d="M236.3 62.8C234.5 62.2 233 61.1 233 60.2C233 59.3 232.4 59 231.4 59.4C230.6 59.7 229 59.5 227.9 58.9C226.2 58.1 226.1 57.6 227.1 56.4C228 55.2 228 54.6 227.1 53.7C226.2 52.8 225.7 52.8 224.9 54C224.1 55.3 223.7 55.1 221.9 53.1C220.5 51.4 220.2 50.4 221 49.6C222.6 48 222.2 46.7 220.1 47.3C218.4 47.7 217.9 46.8 216.4 40.4C214.9 34.1 214.8 32.1 215.9 26.4C217.2 19.4 222.2 9.2 224.9 8.2C225.8 7.9 227.1 6.8 227.8 5.9C229.8 3 239.4 0 246.3 0C256.4 0 265 3.4 262.2 6.2C261.5 6.9 261 8.2 261 9.2C261 11.6 257.2 12.4 249.3 11.6C243.5 11 242.3 11.2 238.6 13.4C232.3 17.1 229.6 22.7 229.6 32C229.6 44 234.6 50.7 244.9 52.5C248.1 53 249 53.6 248.6 54.7C248.2 55.6 248.5 56 249.2 55.7C249.9 55.5 250.4 54.8 250.3 54.2C250.1 53.6 251.7 52.8 253.8 52.5C255.8 52.2 258.2 51.7 259.1 51.6C260.4 51.3 260.9 52.2 261.4 55.2C261.8 57.3 261.8 59.5 261.5 60C259.5 63.2 243.1 65 236.3 62.8Z" fill="#242B30"/>
<path d="M336.5 62.1001C331.6 59.9001 328.7 56.8001 326.3 51.5001C324.9 48.2001 324.5 43.9001 324.2 27.7001C324 16.8001 324.1 6.8001 324.4 5.5001C325.2 2.2001 330.1 -0.299904 333.3 0.900096C334.7 1.5001 336.1 2.4001 336.5 3.0001C336.9 3.6001 337.2 12.9001 337.3 23.8001C337.5 40.8001 337.8 44.0001 339.4 47.3001C340.4 49.3001 341.6 51.0001 342.1 51.0001C342.6 51.0001 343.5 52.2001 344.1 53.7001C344.9 55.7001 345.3 56.1001 346 55.1001C346.5 54.1001 348.2 53.9001 351.9 54.2001C354.7 54.5001 357 54.3001 357 53.9001C357 53.5001 358.3 52.3001 360 51.4001C364.1 48.9001 365 43.7001 365 22.0001C365 1.40009 365.4 0.400096 372.3 1.3001C374.4 1.6001 376.5 2.1001 376.8 2.5001C378.2 3.8001 377.6 46.3001 376.2 50.3001C374.3 55.7001 370.3 59.9001 365.2 62.1001C359.2 64.7001 342.3 64.7001 336.5 62.1001Z" fill="#242B30"/>
<path d="M66.6 61.4C65.2 60.1 65 56 65 32.2C65 5.6 65.1 4.4 67 2.7C68.1 1.8 70.3 1 71.9 1C76.9 1 78 3.1 78.2 13.3C78.2 18.4 78.3 23.3 78.2 24.3C78 26.2 79.6 26.7 80.2 24.9C80.4 24.2 82.1 24.1 85.5 24.7C88.3 25.2 92.8 25.3 95.5 24.9C98.3 24.6 100.7 24.7 100.8 25.2C101.4 26.5 103.1 26.1 102.9 24.8C102.8 24.1 103 22.8 103.3 22C103.6 21.2 104 16.5 104.2 11.7C104.5 2.4 105.2 1 109.7 1C110.9 1 113 1.4 114.4 2L117 3V31.8C117 52.9 116.7 60.9 115.8 61.8C114.4 63.2 108.1 63.4 106 62C104.9 61.3 104.4 58.1 104 48.8C103.5 36.8 103.5 36.6 101 35.9C97.8 35 86.6 34.8 81.8 35.6L78 36.3V47.7C78 54 77.5 60 77 61.1C75.7 63.5 68.9 63.7 66.6 61.4Z" fill="#242B30"/>
<path d="M139 61.6001C139 60.8001 138.5 59.8001 137.8 59.4001C137 58.9001 136.9 59.2001 137.3 60.3001C137.6 61.3001 137.5 62.0001 136.9 62.0001C136.4 62.0001 135.5 60.8001 134.9 59.4001C133.6 55.8001 133.9 7.4001 135.2 4.4001C136.6 1.4001 138.8 1.1001 154.9 1.1001C170.7 1.1001 173 1.8001 173 5.9001C173 10.5001 169.2 12.0001 158 12.0001C149.4 12.0001 148.9 12.1001 147.9 14.4001C146.7 17.0001 147.4 23.5001 149 24.5001C149.5 24.8001 153.8 25.1001 158.7 25.1001C168.6 25.2001 172 26.6001 172 30.5001C172 33.9001 169.9 34.7001 158.7 35.2001C153.3 35.5001 148.6 36.0001 148.3 36.4001C147.9 36.7001 147.4 39.6001 147.2 42.8001C146.6 51.0001 147.8 51.8001 160.8 52.3001C169.5 52.6001 171.4 53.0001 173.1 54.7001C174.8 56.4001 174.9 57.0001 173.9 59.2001C173.3 60.7001 171.8 62.1001 170.6 62.4001C169.5 62.7001 161.9 63.0001 153.8 63.0001C141.6 63.0001 139 62.7001 139 61.6001Z" fill="#242B30"/>
<path d="M280.9 62.3001C280 62.1001 278.8 60.8001 278.2 59.5001C276.6 56.0001 276.7 6.10006 278.3 3.90006C283.6 -3.19994 292.2 1.80006 290.5 10.9001C290.1 12.8001 289.9 21.8001 289.9 30.9001C290 52.1001 290 52.0001 301.3 52.1001C305.8 52.2001 310.6 52.5001 311.9 52.9001C314.7 53.7001 316.5 56.1001 315.8 58.1001C315.5 58.9001 315.2 60.0001 315.2 60.5001C315.1 61.1001 314.1 61.8001 312.8 62.2001C310.3 62.9001 283.5 63.0001 280.9 62.3001Z" fill="#242B30"/>
<path d="M398.6 60.9C397.9 58.6 397.8 58.6 397.1 60.5C396.3 62.3 396.1 62.3 395 59.5C393.5 55.8 394.3 4.30003 395.9 2.70003C397.6 1.00003 408.1 0.500033 409.1 2.10003C409.9 3.30003 410.1 3.30003 410.9 2.10003C411.5 1.20003 413.1 0.900033 416.6 1.40003C419.3 1.70003 423 2.00003 424.8 1.90003C429.2 1.90003 434.6 4.60003 437.1 8.10003C441 13.6 439.4 24.6 434.4 26.9C432 28 431.9 30 434.2 30C435.9 30 439.9 34.8 440.7 37.8C443.3 47.3 439.8 55.8 431.6 59.8C427.6 61.9 424.9 62.3 413.1 62.7L399.3 63.3L398.6 60.9ZM422.3 47.1C424.5 44.9 424 40 421.5 40C420.7 40 420 39.6 420 39C420 37.4 414.3 37.8 412.6 39.6C410.7 41.5 410.5 47.1 412.3 48.9C413.9 50.6 419.9 49.6 422.3 47.1ZM418.1 21.8C420 21.2 421.8 20.2 422.2 19.7C423.1 18.2 420.8 15 418.7 15C417.7 15 416.7 14.3 416.4 13.5C415.4 10.9 413.5 11.8 412.1 15.5C410.8 19.3 411.4 23 413.4 23C414.1 23 416.2 22.5 418.1 21.8Z" fill="#242B30"/>
<path d="M27.7002 62.2C29.1002 58.6 33.0001 56.5 33.0001 59.4C33.0001 60.9 31.4001 62.4 28.8001 63.3C27.5001 63.8 27.3002 63.5 27.7002 62.2Z" fill="#33393E"/>
<path d="M242.5 61.4C243.9 59.2 244 58.6 242.9 57.9C241.8 57.2 241.9 57 243.3 57C244.3 57 245 57.8 245 58.9C245 62 243.9 64 242.3 64C241 64 241 63.6 242.5 61.4Z" fill="#33393E"/>
<path d="M341.299 63.3C341.699 63 342.299 63 342.699 63.3C342.999 63.7 342.699 64 341.999 64C341.299 64 340.999 63.7 341.299 63.3Z" fill="#33393E"/>
<path d="M358.1 62.3C358.1 61.1 358.3 60.9 358.7 61.8C359.1 62.8 359.6 62.6 360.6 61.1C361.7 59.6 363 59.2 365.6 59.4C368 59.6 368.9 59.3 368.6 58.4C368 56.8 370 55 372.4 55C374.2 55 374.2 55.2 371.9 57.6C369.5 60.2 362.1 64 359.4 64C358.6 64 358 63.2 358.1 62.3Z" fill="#33393E"/>
<path d="M22.7 62.3C22.3 62 22 61.2 22 60.6C22 60 22.5 60.1 23.2 60.8C23.8 61.4 24.1 62.2 23.9 62.5C23.6 62.8 23 62.7 22.7 62.3Z" fill="#33393E"/>
<path d="M107 61.9999C107 61.2999 107.3 60.9999 107.7 61.2999C108 61.6999 108 62.2999 107.7 62.6999C107.3 62.9999 107 62.6999 107 61.9999Z" fill="#33393E"/>
<path d="M110 62C110 61.5 111.4 61 113.1 61C114.8 61 115.9 61.4 115.5 62C115.2 62.6 113.8 63 112.4 63C111.1 63 110 62.6 110 62Z" fill="#33393E"/>
<path d="M139 62C139 61.5 140.5 61 142.3 61C146.1 61 148.5 59.7 147.6 58.1C147.2 57.5 147.4 57 147.9 57C148.5 57 149 57.7 149 58.5C149 60.6 153.7 61.5 158.4 60.2C160.9 59.6 162.6 59.5 162.8 60.1C163 60.6 164.5 61 166 61C167.6 61 169.2 61.5 169.5 62C169.9 62.7 164.7 63 154.6 63C144.9 63 139 62.6 139 62Z" fill="#33393E"/>
<path d="M252.6 61.3999C252.2 60.2999 252.5 59.9999 253.7 60.1999C254.6 60.3999 255.5 61.0999 255.8 61.7999C256.4 63.5999 253.3 63.2999 252.6 61.3999Z" fill="#33393E"/>
<path d="M282.3 61.8001C282.5 61.1001 283.2 60.5001 283.8 60.6001C284.5 60.7001 286.1 60.8001 287.5 60.9001C291.7 61.1001 290.3 63.0001 285.9 63.0001C283.1 63.0001 282 62.6001 282.3 61.8001Z" fill="#33393E"/>
<path d="M300 61.3999C300 60.0999 300.7 59.8999 303.1 60.3999C304.8 60.6999 307.3 60.9999 308.6 60.9999C309.9 60.9999 311 61.4999 311 61.9999C311 62.5999 308.5 62.9999 305.5 62.9999C301.1 62.9999 300 62.6999 300 61.3999Z" fill="#33393E"/>
<path d="M335 61.2L331.5 59.6L334.3 59.2C335.8 59 337 58.4 337 57.9C337 57.4 337.4 57 337.9 57C339.2 57 340.1 60 339.3 61.5C338.6 62.6 337.9 62.5 335 61.2Z" fill="#33393E"/>
<path d="M399 62C399 61.5 399.7 61 400.5 61C401.3 61 402 61.5 402 62C402 62.6 401.3 63 400.5 63C399.7 63 399 62.6 399 62Z" fill="#33393E"/>
<path d="M404 62C404 61.5 404.1 61 404.3 61C404.4 61 406 60.6 407.8 60C410.5 59.3 411 59.3 410.1 60.4C409.3 61.4 410.1 61.5 414 61C416.8 60.6 419.2 60.6 419.5 60.8C421.1 62.4 419.1 63 412 63C407.3 63 404 62.6 404 62Z" fill="#33393E"/>
<path d="M65.6 60.4001C65.2 59.5001 65.2 58.5001 65.5 58.2001C65.7 57.9001 66.2 58.5001 66.6 59.4001C67 60.3001 67 61.3001 66.7 61.6001C66.5 61.9001 66 61.3001 65.6 60.4001Z" fill="#33393E"/>
<path d="M105 61.5C105 61.2 105.2 61 105.5 61C105.8 61 106 61.2 106 61.5C106 61.8 105.8 62 105.5 62C105.2 62 105 61.8 105 61.5Z" fill="#33393E"/>
<path d="M135 59.4C134.4 58 134.1 49.4 134.2 40.2C134.4 26.7 134.5 25.7 134.7 34.6C135 44.9 135.2 45.8 137.1 46.3C139.6 47 139.1 49.6 136.6 49.2C135.4 49 135 49.7 135 52.7C135 54.8 135.7 57.7 136.4 59.3C137.2 60.8 137.4 62 136.9 62C136.4 62 135.5 60.8 135 59.4Z" fill="#33393E"/>
<path d="M233 60.6C233 59.8 232.4 59 231.8 58.7C230.8 58.4 230.8 57.8 231.9 55.9C232.9 54.3 232.9 53.5 232.1 53.2C230.5 52.7 230.7 51 232.5 51C233.5 51 234 52 234 53.9C234 55.5 234.4 57 235 57.2C236.1 57.6 235.1 62 233.9 62C233.4 62 233 61.4 233 60.6Z" fill="#33393E"/>
<path d="M256.499 61.1001C256.199 60.6001 256.399 59.9001 256.899 59.6001C257.399 59.3001 257.999 59.7001 258.399 60.5001C258.999 62.1001 257.499 62.6001 256.499 61.1001Z" fill="#33393E"/>
<path d="M278.2 59.6C277.5 58 277.1 49.5 277.2 35.8C277.2 23.8 277.6 16.4 278 18.9C278.4 21.4 279.2 23.6 279.8 23.8C281.5 24.3 281.3 26 279.5 26C278.4 26 278 27.2 278 30.5C278 34.7 278.2 35 280.8 35.1C283.2 35.1 283.2 35.2 281.5 35.9C280.4 36.4 279.2 36.6 278.8 36.3C278.3 36.1 278 38.7 278 42.2C278 46 278.4 48 278.9 47.2C279.6 46.1 279.9 46.2 280.4 47.5C281.3 49.9 281.2 51 279.9 51C279.4 51 279.2 50.6 279.5 50C279.8 49.5 279.6 49 279.1 49C277.5 49 277.8 55.2 279.5 57.4C281.1 59.6 281.5 62 280.2 62C279.7 62 278.8 60.9 278.2 59.6Z" fill="#33393E"/>
<path d="M314 61.5C314 61.2 314.2 61 314.5 61C314.8 61 315 61.2 315 61.5C315 61.8 314.8 62 314.5 62C314.2 62 314 61.8 314 61.5Z" fill="#33393E"/>
<path d="M350 60.4C350 59.6 350.5 59.2 351 59.5C351.6 59.8 352 60.5 352 61.1C352 61.6 351.6 62 351 62C350.5 62 350 61.3 350 60.4Z" fill="#33393E"/>
<path d="M395 59.4C394.4 58 394.1 48.3 394.2 37.7L394.4 18.5L395 38.5C395.3 49.5 395.9 59.3 396.4 60.3C396.8 61.2 396.9 62 396.6 62C396.2 62 395.5 60.8 395 59.4Z" fill="#33393E"/>
<path d="M424 60.5C424 59.5 425.1 59 427.5 59C431.4 59 432.2 60.4 428.8 61.4C425.2 62.3 424 62.1 424 60.5Z" fill="#33393E"/>
<path d="M77 58.9999C77 58.2999 77.3 57.9999 77.7 58.2999C78 58.6999 78 59.2999 77.7 59.6999C77.3 59.9999 77 59.6999 77 58.9999Z" fill="#33393E"/>
<path d="M172 59.0001C170.7 58.2001 170.8 58.0001 172.3 58.0001C173.2 58.0001 174 57.5001 174 56.8001C174 56.2001 174.3 55.9001 174.6 56.3001C174.9 56.6001 174.8 57.5001 174.3 58.4001C173.7 59.4001 173 59.6001 172 59.0001Z" fill="#33393E"/>
<path d="M112 58.5C112 58.2 112.2 58 112.5 58C112.8 58 113 58.2 113 58.5C113 58.8 112.8 59 112.5 59C112.2 59 112 58.8 112 58.5Z" fill="#33393E"/>
<path d="M226.499 58C226.199 57.5 226.399 57 226.899 57C227.499 57 227.999 57.5 227.999 58C227.999 58.6 227.799 59 227.599 59C227.299 59 226.799 58.6 226.499 58Z" fill="#33393E"/>
<path d="M288 58C288 57.5 288.5 57 289 57C289.6 57 290 57.5 290 58C290 58.6 289.6 59 289 59C288.5 59 288 58.6 288 58Z" fill="#33393E"/>
<path d="M104.399 49.4999C104.399 44.5999 104.499 42.3999 104.699 44.6999C104.899 46.9999 104.899 51.0999 104.699 53.6999C104.499 56.2999 104.399 54.4999 104.399 49.4999Z" fill="#33393E"/>
<path d="M435.5 57C435.8 56.5 436.3 56 436.6 56C436.9 56 436.8 56.5 436.5 57C436.2 57.6 435.7 58 435.4 58C435.1 58 435.2 57.6 435.5 57Z" fill="#33393E"/>
<path d="M108 55C108 54.5 108.5 54 109.1 54C109.6 54 109.8 54.5 109.5 55C109.2 55.6 108.7 56 108.4 56C108.2 56 108 55.6 108 55Z" fill="#33393E"/>
<path d="M140.5 55C140.1 54.4 141 54 142.4 54C143.8 54 145 54.5 145 55C145 55.6 144.1 56 143.1 56C142 56 140.8 55.6 140.5 55Z" fill="#33393E"/>
<path d="M237.6 54.3999C236.7 51.9999 236.9 51.6999 238.5 53.3999C240.2 55.0999 240.4 55.9999 239.1 55.9999C238.6 55.9999 237.9 55.2999 237.6 54.3999Z" fill="#33393E"/>
<path d="M294.999 55.4C294.199 55.1 292.899 53.7 292.199 52.3C291.299 50.3 291.299 49.9 292.199 50.8C292.899 51.5 296.599 52 301.699 52C306.299 52 309.999 52.4 309.999 52.9C309.999 53.4 310.799 53.6 311.899 53.3C312.899 53 314.099 53.4 314.599 54.1C315.099 55 314.799 55.1 313.499 54.7C312.599 54.3 311.099 54.5 310.299 55.2C309.199 56.1 308.999 56 309.199 54.9C309.399 53.8 308.099 53.4 303.799 53.2C299.099 53 297.999 53.2 297.999 54.5C297.999 56 297.699 56.1 294.999 55.4Z" fill="#33393E"/>
<path d="M343.4 54.8C343 54.1 343.1 54 343.8 54.4C344.5 54.8 345 55.3 345 55.6C345 56.4 344.1 56 343.4 54.8Z" fill="#33393E"/>
<path d="M355.299 55.3C355.699 55 356.299 55 356.699 55.3C356.999 55.7 356.699 56 355.999 56C355.299 56 354.999 55.7 355.299 55.3Z" fill="#33393E"/>
<path d="M426 55C424.7 54.2 424.8 54 426.3 54C427.2 54 428 54.5 428 55C428 56.2 427.9 56.2 426 55Z" fill="#33393E"/>
<path d="M31 52.9C31 50.5 33.3 50.8 33.8 53.3C34 54.3 33.5 55 32.6 55C31.6 55 31 54.1 31 52.9Z" fill="#33393E"/>
<path d="M164.9 53.4001C163.7 52.0001 163.8 51.8001 165.4 52.1001C166.5 52.3001 167.5 53.1001 167.8 53.8001C168.3 55.5001 166.5 55.3001 164.9 53.4001Z" fill="#33393E"/>
<path d="M222 53.5C221 52.2 221.1 52 222.9 52C224.1 52 224.8 51.6 224.5 51C224.2 50.5 224.4 50 224.9 50C226.1 50 226.3 51.1 225.4 53.4C224.6 55.4 223.6 55.4 222 53.5Z" fill="#33393E"/>
<path d="M350.299 54.3C350.699 54 351.299 54 351.699 54.3C351.999 54.7 351.699 55 350.999 55C350.299 55 349.999 54.7 350.299 54.3Z" fill="#33393E"/>
<path d="M367.5 54C367.8 53.5 368.6 53 369.1 53C369.7 53 369.8 53.5 369.5 54C369.2 54.6 368.4 55 367.9 55C367.3 55 367.2 54.6 367.5 54Z" fill="#33393E"/>
<path d="M250 53.5C250 53.2 250.2 53 250.5 53C250.8 53 251 53.2 251 53.5C251 53.8 250.8 54 250.5 54C250.2 54 250 53.8 250 53.5Z" fill="#33393E"/>
<path d="M142 51.9999C142 51.2999 142.3 50.9999 142.7 51.2999C143 51.6999 143 52.2999 142.7 52.6999C142.3 52.9999 142 52.6999 142 51.9999Z" fill="#33393E"/>
<path d="M242.8 52.3C243.5 52 244.4 52.1 244.7 52.4C245.1 52.7 244.5 53 243.4 52.9C242.3 52.9 242 52.6 242.8 52.3Z" fill="#33393E"/>
<path d="M253.299 52.3C253.699 52 254.299 52 254.699 52.3C254.999 52.7 254.699 53 253.999 53C253.299 53 252.999 52.7 253.299 52.3Z" fill="#33393E"/>
<path d="M426 52.5C426 52.2 426.2 52 426.5 52C426.8 52 427 52.2 427 52.5C427 52.8 426.8 53 426.5 53C426.2 53 426 52.8 426 52.5Z" fill="#33393E"/>
<path d="M148.4 50.8C148 50.1 148.1 50 148.8 50.4C150 51.1 150.4 52 149.6 52C149.3 52 148.8 51.5 148.4 50.8Z" fill="#33393E"/>
<path d="M341.299 51.3C341.699 51 342.299 51 342.699 51.3C342.999 51.7 342.699 52 341.999 52C341.299 52 340.999 51.7 341.299 51.3Z" fill="#33393E"/>
<path d="M360.5 51C360.8 50.5 361.3 50 361.6 50C361.9 50 361.8 50.5 361.5 51C361.2 51.6 360.7 52 360.4 52C360.1 52 360.2 51.6 360.5 51Z" fill="#33393E"/>
<path d="M375.5 49.6C375.9 47.7 375.6 46.4 374.8 45.9C373.8 45.2 373.9 45 375.3 45C377.2 45 377.4 47.3 375.9 50.5C375.2 52.1 375.1 51.9 375.5 49.6Z" fill="#33393E"/>
<path d="M423.4 48.5C424.1 46.2 425.1 45 426.3 45C428.7 45 428.1 48 425.3 50.3C422.3 52.7 422.1 52.5 423.4 48.5Z" fill="#33393E"/>
<path d="M77.2998 46.5001C77.2998 43.8001 77.4998 42.7001 77.6998 44.3001C77.8998 45.8001 77.8998 48.0001 77.6998 49.3001C77.4998 50.5001 77.2998 49.3001 77.2998 46.5001Z" fill="#33393E"/>
<path d="M220.5 50C220.8 49.5 221.3 49 221.6 49C221.9 49 221.8 49.5 221.5 50C221.2 50.6 220.7 51 220.4 51C220.1 51 220.2 50.6 220.5 50Z" fill="#33393E"/>
<path d="M236 49.5C236 49.2 236.2 49 236.5 49C236.8 49 237 49.2 237 49.5C237 49.8 236.8 50 236.5 50C236.2 50 236 49.8 236 49.5Z" fill="#33393E"/>
<path d="M336.7 48.1C336 45.2 338.4 44.8 339.7 47.6C340.7 49.7 340.6 50 339 50C338 50 337 49.1 336.7 48.1Z" fill="#33393E"/>
<path d="M363 49.5C363 49.2 363.2 49 363.5 49C363.8 49 364 49.2 364 49.5C364 49.8 363.8 50 363.5 50C363.2 50 363 49.8 363 49.5Z" fill="#33393E"/>
<path d="M325 47.5C325 46.7 325.5 46 326 46C326.6 46 327 46.7 327 47.5C327 48.3 326.6 49 326 49C325.5 49 325 48.3 325 47.5Z" fill="#33393E"/>
<path d="M396.7 48.3C396.3 48 396 47 396 46.1C396.1 44.8 396.3 44.8 397.1 46.3C398.2 48.2 397.9 49.6 396.7 48.3Z" fill="#33393E"/>
<path d="M217.7 45.9C217.3 44.4 217.5 44 218.7 44.4C219.5 44.7 220.4 45 220.6 45C221.6 45 220.9 46.8 219.6 47.3C218.8 47.6 218 47.1 217.7 45.9Z" fill="#33393E"/>
<path d="M231 46.9999C230.2 46.4999 229.9 45.8 230.2 45.4C231.2 44.5 234 45.6999 234 46.9999C234 48.1999 233 48.2999 231 46.9999Z" fill="#33393E"/>
<path d="M363 47.5C363 47.2 363.2 47 363.5 47C363.8 47 364 47.2 364 47.5C364 47.8 363.8 48 363.5 48C363.2 48 363 47.8 363 47.5Z" fill="#33393E"/>
<path d="M441.1 46C441 44.6 440.1 42.9 439 42.2C436.8 40.9 437.1 39 439.5 39C441 39 442.6 45 441.7 47.2C441.4 47.9 441.1 47.4 441.1 46Z" fill="#33393E"/>
<path d="M224.8 43.1C223.4 41.5 223.4 41.1 224.6 40.6C225.4 40.3 226 40.5 226 41.1C226 41.7 226.5 41.8 227 41.5C228.2 40.8 228.3 42 227.2 43.7C226.6 44.6 226 44.5 224.8 43.1Z" fill="#33393E"/>
<path d="M364.1 44C364.1 43.2 364.5 41.6 365 40.5L365.9 38.5V40.5C365.9 41.6 365.5 43.2 365 44C364.1 45.3 364 45.3 364.1 44Z" fill="#33393E"/>
<path d="M407.8 43.3C407.2 40.5 408 38 409.6 38C410.5 38 411 39.1 411 41.5C411 45.2 408.6 46.5 407.8 43.3Z" fill="#33393E"/>
<path d="M26 42.9999C26 42.2999 26.3 41.9999 26.7 42.2999C27 42.6999 27 43.2999 26.7 43.6999C26.3 43.9999 26 43.6999 26 42.9999Z" fill="#33393E"/>
<path d="M109 43.5C109 43.2 109.2 43 109.5 43C109.8 43 110 43.2 110 43.5C110 43.8 109.8 44 109.5 44C109.2 44 109 43.8 109 43.5Z" fill="#33393E"/>
<path d="M231 43.5C231 43.2 231.2 43 231.5 43C231.8 43 232 43.2 232 43.5C232 43.8 231.8 44 231.5 44C231.2 44 231 43.8 231 43.5Z" fill="#33393E"/>
<path d="M324.1 26.1C324.1 16 324.2 7.89997 324.5 8.19997C324.8 8.49997 325 15.1 325.1 22.8C325.1 33.2 325.4 37 326.3 37C327.2 37 327.2 37.2 326.3 37.8C325.7 38.2 325 39.9 324.7 41.5C324.5 43.2 324.2 36.2 324.1 26.1Z" fill="#33393E"/>
<path d="M330.8 43.2C329.8 43 329 42.4 329 41.9C329 40.6 331.7 40.8 332.5 42.1C333.4 43.4 332.9 43.7 330.8 43.2Z" fill="#33393E"/>
<path d="M402 42C401.1 40.4 401.2 40 402.5 40C403.3 40 404 40.9 404 42C404 43.1 403.8 44 403.5 44C403.3 44 402.6 43.1 402 42Z" fill="#33393E"/>
<path d="M142.3 40.9C142.2 39.7 142.2 38.9 142.3 39.1C142.5 39.3 143.2 40.3 143.9 41.3C145 42.7 145 43 143.8 43C143.1 43 142.4 42 142.3 40.9Z" fill="#33393E"/>
<path d="M337.2 41C337.2 39.6 337.4 39.1 337.7 39.8C337.9 40.4 337.9 41.6 337.7 42.3C337.4 42.9 337.2 42.4 337.2 41Z" fill="#33393E"/>
<path d="M284 41.5C284 41.2 284.2 41 284.5 41C284.8 41 285 41.2 285 41.5C285 41.8 284.8 42 284.5 42C284.2 42 284 41.8 284 41.5Z" fill="#33393E"/>
<path d="M376.3 39.4C375.6 38.7 375 36.5 375 34.5C375 32.4 375.5 31 376.3 31C377 31 377.1 30.7 376.5 30.2C374.5 28.8 372.7 24.6 373.9 24.2C374.6 24 375 20.6 375 14.4C375 8.6 375.4 5 376 5C377.9 5 378.1 7.3 377.8 24.2C377.6 37.5 377.3 40.5 376.3 39.4Z" fill="#33393E"/>
<path d="M422 40.0001C422 39.5001 421.1 39.0001 420 39.0001C418.7 39.0001 418 38.3001 418 37.0001C418 35.9001 418.4 35.0001 418.9 35.0001C419.4 35.0001 420.5 34.7001 421.4 34.4001C422.5 34.0001 423 34.3001 423 35.4001C423 36.3001 423.6 37.0001 424.4 37.0001C425.6 37.0001 427 39.0001 427 40.6001C427 40.8001 425.9 41.0001 424.5 41.0001C423.1 41.0001 422 40.6001 422 40.0001Z" fill="#33393E"/>
<path d="M283 39.5C283 39.2 283.2 39 283.5 39C283.8 39 284 39.2 284 39.5C284 39.8 283.8 40 283.5 40C283.2 40 283 39.8 283 39.5Z" fill="#33393E"/>
<path d="M147 38.5C147 38.2 147.2 38 147.5 38C147.8 38 148 38.2 148 38.5C148 38.8 147.8 39 147.5 39C147.2 39 147 38.8 147 38.5Z" fill="#33393E"/>
<path d="M229.1 37.4001C229.1 36.3001 229.4 36.0001 229.7 36.8001C230 37.5001 229.9 38.4001 229.6 38.7001C229.3 39.1001 229 38.5001 229.1 37.4001Z" fill="#33393E"/>
<path d="M76.7999 36.3C76.1999 34 78.7999 32.6 81.5999 33.7C83.7999 34.5 83.1999 36 80.5999 36C79.2999 36 77.9999 36.6 77.7999 37.2C77.4999 37.9 77.0999 37.5 76.7999 36.3Z" fill="#33393E"/>
<path d="M113 37.5C113 37.2 113.2 37 113.5 37C113.8 37 114 37.2 114 37.5C114 37.8 113.8 38 113.5 38C113.2 38 113 37.8 113 37.5Z" fill="#33393E"/>
<path d="M221 36.9999C221 36.2999 221.3 35.9999 221.7 36.2999C222 36.6999 222 37.2999 221.7 37.6999C221.3 37.9999 221 37.6999 221 36.9999Z" fill="#33393E"/>
<path d="M433.7 37.3C432.7 36.4 432.8 35 433.8 35C434.3 35 434.7 35.7 434.7 36.5C434.7 38.2 434.6 38.3 433.7 37.3Z" fill="#33393E"/>
<path d="M215.3 32.5001C215.3 29.8001 215.5 28.7001 215.7 30.3001C215.9 31.8001 215.9 34.0001 215.7 35.3001C215.5 36.5001 215.3 35.3001 215.3 32.5001Z" fill="#33393E"/>
<path d="M99.6002 35.2999C100.1 34.7999 100.8 34.0999 101.2 33.4999C101.6 32.8999 102 33.2999 102 34.2999C102 35.1999 101.3 35.9999 100.3 35.9999C99.4002 35.9999 99.1002 35.6999 99.6002 35.2999Z" fill="#33393E"/>
<path d="M147.5 34.9999C146.7 33.6999 150 33.6999 152 34.9999C153.2 35.7999 152.9 35.9999 150.8 35.9999C149.3 35.9999 147.8 35.5999 147.5 34.9999Z" fill="#33393E"/>
<path d="M439 35.5C439 35.2 439.2 35 439.5 35C439.8 35 440 35.2 440 35.5C440 35.8 439.8 36 439.5 36C439.2 36 439 35.8 439 35.5Z" fill="#33393E"/>
<path d="M165 32C165 30.4 165.5 29 166.1 29C166.7 29 167 29.7 166.6 30.5C166.1 31.9 168.1 32.6 171.5 32.1C172.1 32 171.6 32.7 170.6 33.5C167.3 36 165 35.4 165 32Z" fill="#33393E"/>
<path d="M225.999 32C225.999 30.9 225.499 30 224.899 30C224.299 30 223.999 29.4 224.299 28.8C224.499 28.1 225.699 27.6 226.799 27.8C228.499 28.1 228.999 27.6 228.999 25.9C228.999 24.7 229.199 23.9 229.499 24.2C230.599 25.3 228.699 34 227.399 34C226.599 34 225.999 33.1 225.999 32Z" fill="#33393E"/>
<path d="M107 31.9001C107 31.3001 107.7 30.2001 108.5 29.4001C110.1 27.8001 110.4 28.7001 109.4 31.4001C108.7 33.2001 107 33.6001 107 31.9001Z" fill="#33393E"/>
<path d="M83 31C83 30.5 83.7 30 84.5 30C85.3 30 86 30.5 86 31C86 31.6 85.3 32 84.5 32C83.7 32 83 31.6 83 31Z" fill="#33393E"/>
<path d="M97 31.5C97 31.2 97.2 31 97.5 31C97.8 31 98 31.2 98 31.5C98 31.8 97.8 32 97.5 32C97.2 32 97 31.8 97 31.5Z" fill="#33393E"/>
<path d="M143 31.5C143 31.2 143.2 31 143.5 31C143.8 31 144 31.2 144 31.5C144 31.8 143.8 32 143.5 32C143.2 32 143 31.8 143 31.5Z" fill="#33393E"/>
<path d="M154 29.8001C154 28.6001 154.1 27.9001 154.3 28.1001C154.4 28.3001 155.2 29.3001 155.9 30.3001C157.1 31.7001 157 32.0001 155.6 32.0001C154.6 32.0001 154 31.2001 154 29.8001Z" fill="#33393E"/>
<path d="M284.1 30.1999C282.7 27.4999 282.9 26.6999 284.9 27.8999C285.6 28.3999 286 29.5999 285.8 30.5999C285.4 32.2999 285.3 32.2999 284.1 30.1999Z" fill="#33393E"/>
<path d="M366.6 31.3C365.5 30.2 366 29 367.5 29C368.3 29 369 29.4 369 29.9C369 31.2 367.4 32.1 366.6 31.3Z" fill="#33393E"/>
<path d="M402.5 31C402.8 30.5 403.3 30 403.6 30C403.9 30 403.8 30.5 403.5 31C403.2 31.6 402.7 32 402.4 32C402.1 32 402.2 31.6 402.5 31Z" fill="#33393E"/>
<path d="M415.5 31C415.8 30.5 416.3 30 416.6 30C416.9 30 416.8 30.5 416.5 31C416.2 31.6 415.7 32 415.4 32C415.1 32 415.2 31.6 415.5 31Z" fill="#33393E"/>
<path d="M427.5 31.1C427.8 30.6 427.2 29.4 426.3 28.4C424.6 26.8 424.7 26.7 427.3 27.2C428.9 27.5 430 27.3 430 26.6C430 25.6 434.4 23 436.2 23C438.1 23 436.8 25.8 434.4 26.8C432.9 27.5 432.2 28.5 432.6 29.2C433 29.8 432.9 30 432.2 29.6C431.6 29.3 430.5 29.7 429.7 30.5C428 32.1 426.6 32.5 427.5 31.1Z" fill="#33393E"/>
<path d="M435 30.5C435 30.2 435.2 30 435.5 30C435.8 30 436 30.2 436 30.5C436 30.8 435.8 31 435.5 31C435.2 31 435 30.8 435 30.5Z" fill="#33393E"/>
<path d="M169.899 27.3C168.599 25.7 168.7 25.6 170.3 26.9C171.9 28.2 172.4 29 171.6 29C171.4 29 170.599 28.2 169.899 27.3Z" fill="#33393E"/>
<path d="M218.7 26.3001C218.5 25.8001 219.1 24.7001 220.2 23.8001C221.9 22.1001 222 22.1001 222 24.5001C222 26.8001 219.7 28.1001 218.7 26.3001Z" fill="#33393E"/>
<path d="M397 26.5C397 26.2 397.2 26 397.5 26C397.8 26 398 26.2 398 26.5C398 26.8 397.8 27 397.5 27C397.2 27 397 26.8 397 26.5Z" fill="#33393E"/>
<path d="M76.6994 24.1C76.3994 22.7 76.6994 22 77.5994 22C79.1994 22 79.3994 22.9 78.0994 24.8C77.4994 25.8 77.0994 25.7 76.6994 24.1Z" fill="#33393E"/>
<path d="M91 25.5C91 25.2 91.2 25 91.5 25C91.8 25 92 25.2 92 25.5C92 25.8 91.8 26 91.5 26C91.2 26 91 25.8 91 25.5Z" fill="#33393E"/>
<path d="M115 25.5C115 25.2 115.2 25 115.5 25C115.8 25 116 25.2 116 25.5C116 25.8 115.8 26 115.5 26C115.2 26 115 25.8 115 25.5Z" fill="#33393E"/>
<path d="M136.3 24.5001C135.5 22.3001 136.9 21.2001 138 23.0001C139.3 25.0001 139.2 26.0001 138 26.0001C137.4 26.0001 136.7 25.3001 136.3 24.5001Z" fill="#33393E"/>
<path d="M149 25.5C149 25.2 149.2 25 149.5 25C149.8 25 150 25.2 150 25.5C150 25.8 149.8 26 149.5 26C149.2 26 149 25.8 149 25.5Z" fill="#33393E"/>
<path d="M153.299 25.2999C154.199 25.0999 155.599 25.0999 156.299 25.2999C156.899 25.5999 156.199 25.7999 154.499 25.7999C152.899 25.7999 152.299 25.5999 153.299 25.2999Z" fill="#33393E"/>
<path d="M159 25.5C159 25.2 159.2 25 159.5 25C159.8 25 160 25.2 160 25.5C160 25.8 159.8 26 159.5 26C159.2 26 159 25.8 159 25.5Z" fill="#33393E"/>
<path d="M162.799 25.2999C163.399 25.0999 164.599 25.0999 165.299 25.2999C165.899 25.5999 165.399 25.7999 163.999 25.7999C162.599 25.7999 162.099 25.5999 162.799 25.2999Z" fill="#33393E"/>
<path d="M80 24.5C80 24.2 80.2 24 80.5 24C80.8 24 81 24.2 81 24.5C81 24.8 80.8 25 80.5 25C80.2 25 80 24.8 80 24.5Z" fill="#33393E"/>
<path d="M113.1 23.3999C113.1 22.2999 113.4 21.9999 113.7 22.7999C114 23.4999 113.9 24.3999 113.6 24.6999C113.3 25.0999 113 24.4999 113.1 23.3999Z" fill="#33393E"/>
<path d="M216 23.9999C216 23.2999 216.3 22.9999 216.7 23.2999C217 23.6999 217 24.2999 216.7 24.6999C216.3 24.9999 216 24.6999 216 23.9999Z" fill="#33393E"/>
<path d="M398 24.5C398 24.2 398.2 24 398.5 24C398.8 24 399 24.2 399 24.5C399 24.8 398.8 25 398.5 25C398.2 25 398 24.8 398 24.5Z" fill="#33393E"/>
<path d="M102 23.5C102 23.2 102.2 23 102.5 23C102.8 23 103 23.2 103 23.5C103 23.8 102.8 24 102.5 24C102.2 24 102 23.8 102 23.5Z" fill="#33393E"/>
<path d="M134.3 15.9999C134.3 11.8999 134.5 10.1999 134.7 12.2999C134.9 14.2999 134.9 17.6999 134.7 19.7999C134.5 21.7999 134.3 20.0999 134.3 15.9999Z" fill="#33393E"/>
<path d="M142.7 19.5001C143 18.7001 143.6 18.3001 144.1 18.6001C145.3 19.3001 145.2 19.7001 143.6 20.3001C142.6 20.7001 142.3 20.4001 142.7 19.5001Z" fill="#33393E"/>
<path d="M438 19.9999C438 19.2999 438.3 18.9999 438.7 19.2999C439 19.6999 439 20.2999 438.7 20.6999C438.3 20.9999 438 20.6999 438 19.9999Z" fill="#33393E"/>
<path d="M25.4 18.8C25 18.1 25.1 18 25.8 18.4C27 19.1 27.4 20 26.6 20C26.3 20 25.8 19.5 25.4 18.8Z" fill="#33393E"/>
<path d="M222.1 19.6C223.3 18.6 228 18.1 228 19C228 19.5 226.6 20 224.8 20C223.1 20 221.9 19.8 222.1 19.6Z" fill="#33393E"/>
<path d="M284.5 19.1C284.8 18.6 284.6 17.9 284 17.5C282.8 16.8 284.5 13 286.1 13C287.5 13 286.8 18.9 285.2 19.5C284.5 19.7 284.2 19.6 284.5 19.1Z" fill="#33393E"/>
<path d="M365.199 18.2999C365.399 17.3999 366.099 16.4999 366.799 16.1999C368.599 15.5999 368.299 18.6999 366.399 19.3999C365.299 19.7999 364.999 19.4999 365.199 18.2999Z" fill="#33393E"/>
<path d="M77.2998 14.5001C77.2998 11.8001 77.4998 10.7001 77.6998 12.3001C77.8998 13.8001 77.8998 16.0001 77.6998 17.3001C77.4998 18.5001 77.2998 17.3001 77.2998 14.5001Z" fill="#33393E"/>
<path d="M33 17.5C33 17.2 33.2 17 33.5 17C33.8 17 34 17.2 34 17.5C34 17.8 33.8 18 33.5 18C33.2 18 33 17.8 33 17.5Z" fill="#33393E"/>
<path d="M104.3 11.5001C104.3 7.70005 104.5 6.20005 104.7 8.30005C104.9 10.3001 104.9 13.5001 104.7 15.3001C104.5 17.0001 104.3 15.4001 104.3 11.5001Z" fill="#33393E"/>
<path d="M398 16.5C398 16.2 398.2 16 398.5 16C398.8 16 399 16.2 399 16.5C399 16.8 398.8 17 398.5 17C398.2 17 398 16.8 398 16.5Z" fill="#33393E"/>
<path d="M33 15.5C33 15.2 33.2 15 33.5 15C33.8 15 34 15.2 34 15.5C34 15.8 33.8 16 33.5 16C33.2 16 33 15.8 33 15.5Z" fill="#33393E"/>
<path d="M234 15.5C234 15.2 234.2 15 234.5 15C234.8 15 235 15.2 235 15.5C235 15.8 234.8 16 234.5 16C234.2 16 234 15.8 234 15.5Z" fill="#33393E"/>
<path d="M433.4 14.8C433 14.1 433.1 14 433.8 14.4C435 15.1 435.4 16 434.6 16C434.3 16 433.8 15.5 433.4 14.8Z" fill="#33393E"/>
<path d="M236.399 12.8001C236.399 10.8001 239.699 9.30011 241.099 10.7001C241.499 11.1001 240.699 12.2001 239.199 13.1001C236.599 14.6001 236.399 14.5001 236.399 12.8001Z" fill="#33393E"/>
<path d="M278.2 13.7999C277.5 13.0999 277.1 10.7999 277.2 8.59991C277.3 4.59991 277.3 4.59991 277.7 7.89991C278 9.79991 278.9 11.8999 279.7 12.4999C280.7 13.1999 280.9 13.8999 280.3 14.2999C279.8 14.5999 278.8 14.3999 278.2 13.7999Z" fill="#33393E"/>
<path d="M396 13.9999C396 13.2999 396.3 12.9999 396.7 13.2999C397 13.6999 397 14.2999 396.7 14.6999C396.3 14.9999 396 14.6999 396 13.9999Z" fill="#33393E"/>
<path d="M31.4994 12.9C31.0994 12.3 30.9994 11.7 31.2994 11.4C31.4994 11.1 31.9994 11.6 32.2994 12.5C32.9994 14.2 32.3994 14.5 31.4994 12.9Z" fill="#33393E"/>
<path d="M34 12.5C34 11.7 34.7 11 35.5 11C36.3 11 37 11.4 37 11.9C37 12.4 36.3 13 35.5 13.4C34.6 13.7 34 13.4 34 12.5Z" fill="#33393E"/>
<path d="M136.5 13C136.2 12.4 136.6 11.7 137.5 11.4C139.4 10.6 140.5 11.4 139.5 12.9C138.7 14.3 137.3 14.3 136.5 13Z" fill="#33393E"/>
<path d="M434.4 12.8C434 12.1 434.1 12 434.8 12.4C435.5 12.8 436 13.3 436 13.6C436 14.4 435.1 14 434.4 12.8Z" fill="#33393E"/>
<path d="M148 12.5C148 12.2 148.2 12 148.5 12C148.8 12 149 12.2 149 12.5C149 12.8 148.8 13 148.5 13C148.2 13 148 12.8 148 12.5Z" fill="#33393E"/>
<path d="M8 11.5999C8 11.3999 9.6 10.9999 11.5 10.7999C13.4 10.5999 15 10.7999 15 11.1999C15 11.5999 13.4 11.9999 11.5 11.9999C9.6 11.9999 8 11.7999 8 11.5999Z" fill="#33393E"/>
<path d="M46.9999 9.99991C47.5999 8.79991 47.8999 7.19991 47.5999 6.39991C47.2999 5.59991 47.6999 4.99991 48.3999 4.99991C49.1999 4.99991 50.0999 4.19991 50.3999 3.29991C50.9999 1.79991 51.1999 1.79991 51.9999 2.99991C54.3999 6.69991 52.7999 9.99991 48.1999 11.4999C45.9999 12.0999 45.8999 11.9999 46.9999 9.99991Z" fill="#33393E"/>
<path d="M151 11.2C151 10.7 154.6 10.5 159 10.8L167 11.3V8.5C167 6.2 167.2 5.9 168.5 7C169.5 7.9 170 7.9 170 7.1C170 6.5 170.7 6 171.5 6C174.1 6 173.1 8.9 170 10.5C166.9 12.1 151 12.7 151 11.2Z" fill="#33393E"/>
<path d="M249.3 9.40001C249.3 7.90001 248.7 6.40001 248 6.00001C247.1 5.40001 247.1 5.10001 247.9 4.50001C249.5 3.60001 252 5.80001 251.3 7.60001C250.8 8.90001 252 9.40001 254.8 9.10001C255.5 9.00001 256.7 9.60001 257.6 10.5C259 11.8 258.7 12 254.3 12C249.8 12 249.5 11.8 249.3 9.40001Z" fill="#33393E"/>
<path d="M0.999785 9.10009C0.499785 8.00009 -0.00021501 6.10009 0.099785 4.80009C0.199785 2.30009 0.499785 2.90009 1.39978 7.20009C1.89978 9.20009 2.39978 9.70009 3.99978 9.30009C5.09978 9.00009 5.99978 9.30009 5.99978 9.90009C5.99978 11.8001 2.09979 11.1001 0.999785 9.10009Z" fill="#33393E"/>
<path d="M243.2 9.8999C243.4 9.2999 244 8.8999 244.5 8.8999C245 8.8999 245.6 9.2999 245.8 9.8999C246 10.4999 245.4 10.9999 244.5 10.9999C243.6 10.9999 243 10.4999 243.2 9.8999Z" fill="#33393E"/>
<path d="M259.2 9.5C258.1 8.3 258.2 8 259.5 8C260.3 8 261 8.7 261 9.5C261 11.3 260.8 11.3 259.2 9.5Z" fill="#33393E"/>
<path d="M223.7 8.90007C224.4 8.20007 225.2 7.90007 225.5 8.20007C225.8 8.50007 225.3 9.10007 224.3 9.40007C222.9 10.0001 222.8 9.90007 223.7 8.90007Z" fill="#33393E"/>
<path d="M337.2 7.99997C337.2 6.59997 337.4 6.09997 337.7 6.79997C337.9 7.39997 337.9 8.59997 337.7 9.29997C337.4 9.89997 337.2 9.39997 337.2 7.99997Z" fill="#33393E"/>
<path d="M36 7.50005C36 6.60005 36.6 6.30005 37.5 6.60005C38.3 7.00005 38.7 7.60005 38.4 8.10005C37.6 9.50005 36 9.10005 36 7.50005Z" fill="#33393E"/>
<path d="M107 7.3C107 6.6 107.7 6 108.5 6C109.3 6 110 6.6 110 7.3C110 8.1 109.3 8.7 108.5 8.7C107.7 8.7 107 8.1 107 7.3Z" fill="#33393E"/>
<path d="M142 7.49992C142 6.59992 142.5 5.99992 143.1 6.19992C143.7 6.39992 144.2 6.99992 144.2 7.49992C144.2 7.99992 143.7 8.59992 143.1 8.79992C142.5 8.99992 142 8.39992 142 7.49992Z" fill="#33393E"/>
<path d="M238 8.5C238 8.2 238.2 8 238.5 8C238.8 8 239 8.2 239 8.5C239 8.8 238.8 9 238.5 9C238.2 9 238 8.8 238 8.5Z" fill="#33393E"/>
<path d="M71.5995 6.5C71.2995 5.7 71.4995 5 71.8995 5C72.3995 5 72.9995 5.7 73.3995 6.5C73.6995 7.3 73.4995 8 73.0995 8C72.5995 8 71.9995 7.3 71.5995 6.5Z" fill="#33393E"/>
<path d="M134 6.99992C134 6.29992 134.3 5.99992 134.7 6.29992C135 6.69992 135 7.29992 134.7 7.69992C134.3 7.99992 134 7.69992 134 6.99992Z" fill="#33393E"/>
<path d="M155.299 7.29995C155.699 6.99995 156.299 6.99995 156.699 7.29995C156.999 7.69995 156.699 7.99995 155.999 7.99995C155.299 7.99995 154.999 7.69995 155.299 7.29995Z" fill="#33393E"/>
<path d="M227 6.99992C227 6.29992 227.3 5.99992 227.7 6.29992C228 6.69992 228 7.29992 227.7 7.69992C227.3 7.99992 227 7.69992 227 6.99992Z" fill="#33393E"/>
<path d="M434.899 6.29998C433.599 4.69998 433.699 4.59998 435.299 5.89998C436.199 6.59998 437 7.39998 437 7.59998C437 8.39998 436.199 7.89998 434.899 6.29998Z" fill="#33393E"/>
<path d="M237 6C237 5.5 237.5 5 238 5C238.6 5 239 5.5 239 6C239 6.6 238.6 7 238 7C237.5 7 237 6.6 237 6Z" fill="#33393E"/>
<path d="M261.4 6.19995C261.8 5.49995 261.6 4.09995 260.9 3.19995C259.7 1.69995 259.8 1.69995 261.5 3.19995C263.1 4.69995 263.2 5.19995 262.1 6.19995C261 7.29995 260.8 7.19995 261.4 6.19995Z" fill="#33393E"/>
<path d="M324 5.5C324 5.2 324.2 5 324.5 5C324.8 5 325 5.2 325 5.5C325 5.8 324.8 6 324.5 6C324.2 6 324 5.8 324 5.5Z" fill="#33393E"/>
<path d="M65 4.5C65 4.2 65.2 4 65.5 4C65.8 4 66 4.2 66 4.5C66 4.8 65.8 5 65.5 5C65.2 5 65 4.8 65 4.5Z" fill="#33393E"/>
<path d="M77 4.5C77 4.2 77.2 4 77.5 4C77.8 4 78 4.2 78 4.5C78 4.8 77.8 5 77.5 5C77.2 5 77 4.8 77 4.5Z" fill="#33393E"/>
<path d="M431 4C430.1 3.4 430 3 430.7 3C431.3 3 432.2 3.5 432.5 4C433.3 5.2 432.9 5.2 431 4Z" fill="#33393E"/>
<path d="M114.3 3.30003C113 3.10003 112 2.50003 112 2.00003C112 1.00003 115.8 1.90003 116.6 3.10003C116.9 3.60003 117 3.90003 116.8 3.90003C116.6 3.80003 115.5 3.50003 114.3 3.30003Z" fill="#33393E"/>
<path d="M144.299 3.29995C144.699 2.99995 145.299 2.99995 145.699 3.29995C145.999 3.69995 145.699 3.99995 144.999 3.99995C144.299 3.99995 143.999 3.69995 144.299 3.29995Z" fill="#33393E"/>
<path d="M231 3.5C231 3.2 231.2 3 231.5 3C231.8 3 232 3.2 232 3.5C232 3.8 231.8 4 231.5 4C231.2 4 231 3.8 231 3.5Z" fill="#33393E"/>
<path d="M369 2.5C367.9 1.2 368.2 1 370.9 1C374.2 1 375.1 2.4 372.4 3.4C370.3 4.2 370.4 4.2 369 2.5Z" fill="#33393E"/>
<path d="M105 2.5C105 2.2 105.2 2 105.5 2C105.8 2 106 2.2 106 2.5C106 2.8 105.8 3 105.5 3C105.2 3 105 2.8 105 2.5Z" fill="#33393E"/>
<path d="M145.5 2.0001L141.5 1.3001L145.2 1.1001C147.2 1.1001 149.2 1.5001 149.5 2.0001C149.8 2.6001 150 2.9001 149.8 2.9001C149.6 2.8001 147.7 2.4001 145.5 2.0001Z" fill="#33393E"/>
<path d="M233 2.5C233 2.2 233.2 2 233.5 2C233.8 2 234 2.2 234 2.5C234 2.8 233.8 3 233.5 3C233.2 3 233 2.8 233 2.5Z" fill="#33393E"/>
<path d="M251.6 1.5C251 -0.199997 251.4 -0.299997 254.8 0.700003C256.6 1.1 256.8 1.5 255.8 2.1C253.8 3.4 252.3 3.2 251.6 1.5Z" fill="#33393E"/>
<path d="M366 2.5C366 2.2 366.2 2 366.5 2C366.8 2 367 2.2 367 2.5C367 2.8 366.8 3 366.5 3C366.2 3 366 2.8 366 2.5Z" fill="#33393E"/>
<path d="M6.79964 1.30004C7.49964 1.00004 8.39964 1.10004 8.69964 1.40004C9.09964 1.70004 8.49964 2.00004 7.39964 1.90004C6.29964 1.90004 5.99964 1.60004 6.79964 1.30004Z" fill="#33393E"/>
<path d="M20 1.5C20 1.2 20.2 1 20.5 1C20.8 1 21 1.2 21 1.5C21 1.8 20.8 2 20.5 2C20.2 2 20 1.8 20 1.5Z" fill="#33393E"/>
<path d="M48 1.5C48 1.2 48.2 1 48.5 1C48.8 1 49 1.2 49 1.5C49 1.8 48.8 2 48.5 2C48.2 2 48 1.8 48 1.5Z" fill="#33393E"/>
<path d="M68 1.5C68 1.2 68.2 1 68.5 1C68.8 1 69 1.2 69 1.5C69 1.8 68.8 2 68.5 2C68.2 2 68 1.8 68 1.5Z" fill="#33393E"/>
<path d="M139 1.5C139 1.2 139.2 1 139.5 1C139.8 1 140 1.2 140 1.5C140 1.8 139.8 2 139.5 2C139.2 2 139 1.8 139 1.5Z" fill="#33393E"/>
<path d="M168 1.5C168 1.2 168.2 1 168.5 1C168.8 1 169 1.2 169 1.5C169 1.8 168.8 2 168.5 2C168.2 2 168 1.8 168 1.5Z" fill="#33393E"/>
<path d="M236 1.5C236 1.2 236.2 1 236.5 1C236.8 1 237 1.2 237 1.5C237 1.8 236.8 2 236.5 2C236.2 2 236 1.8 236 1.5Z" fill="#33393E"/>
<path d="M334 1.5C334 1.2 334.2 1 334.5 1C334.8 1 335 1.2 335 1.5C335 1.8 334.8 2 334.5 2C334.2 2 334 1.8 334 1.5Z" fill="#33393E"/>
<path d="M399 1.5C399 1.2 399.2 1 399.5 1C399.8 1 400 1.2 400 1.5C400 1.8 399.8 2 399.5 2C399.2 2 399 1.8 399 1.5Z" fill="#33393E"/>
<path d="M408 1.5C408 1.2 408.2 1 408.5 1C408.8 1 409 1.2 409 1.5C409 1.8 408.8 2 408.5 2C408.2 2 408 1.8 408 1.5Z" fill="#33393E"/>
<path d="M244.1 60.3999C244.1 59.2999 244.4 58.9999 244.7 59.7999C245 60.4999 244.9 61.3999 244.6 61.6999C244.3 62.0999 244 61.4999 244.1 60.3999Z" fill="white"/>
<path d="M148.4 59.8C148 59.1 148.1 59 148.8 59.4C149.5 59.8 150 60.3 150 60.6C150 61.4 149.1 61 148.4 59.8Z" fill="white"/>
<path d="M161 59.9999C161 59.2999 161.3 58.9999 161.7 59.2999C162 59.6999 162 60.2999 161.7 60.6999C161.3 60.9999 161 60.6999 161 59.9999Z" fill="white"/>
<path d="M338 60C338 59.5 338.5 59 339 59C339.6 59 340 59.5 340 60C340 60.6 339.6 61 339 61C338.5 61 338 60.6 338 60Z" fill="white"/>
<path d="M350 59.9001C350 59.4001 350.5 59.2001 351 59.5001C351.6 59.8001 352 60.3001 352 60.6001C352 60.8001 351.6 61.0001 351 61.0001C350.5 61.0001 350 60.5001 350 59.9001Z" fill="white"/>
<path d="M361.5 60C361.8 59.5 362.3 59 362.6 59C362.8 59 363 59.5 363 60C363 60.6 362.5 61 361.9 61C361.4 61 361.2 60.6 361.5 60Z" fill="white"/>
<path d="M409 60.5C409 60.2 409.2 60 409.5 60C409.8 60 410 60.2 410 60.5C410 60.8 409.8 61 409.5 61C409.2 61 409 60.8 409 60.5Z" fill="white"/>
<path d="M155 55C155 54.5 155.5 54 156 54C156.6 54 157 54.5 157 55C157 55.6 156.6 56 156 56C155.5 56 155 55.6 155 55Z" fill="white"/>
<path d="M238 54.9999C238 54.2999 238.3 53.9999 238.7 54.2999C239 54.6999 239 55.2999 238.7 55.6999C238.3 55.9999 238 55.6999 238 54.9999Z" fill="white"/>
<path d="M296 55C296 54.5 296.5 54 297 54C297.6 54 298 54.5 298 55C298 55.6 297.6 56 297 56C296.5 56 296 55.6 296 55Z" fill="white"/>
<path d="M402.5 55C402.2 54.5 402.6 54 403.4 54C404.3 54 405 54.5 405 55C405 55.6 404.6 56 404.1 56C403.5 56 402.8 55.6 402.5 55Z" fill="white"/>
<path d="M108 54.5C108 54.2 108.2 54 108.5 54C108.8 54 109 54.2 109 54.5C109 54.8 108.8 55 108.5 55C108.2 55 108 54.8 108 54.5Z" fill="white"/>
<path d="M142.8 54.3C143.5 54 144.4 54.1 144.7 54.4C145.1 54.7 144.5 55 143.4 54.9C142.3 54.9 142 54.6 142.8 54.3Z" fill="white"/>
<path d="M367.3 54.3C367.7 54 368.3 54 368.7 54.3C369 54.7 368.7 55 368 55C367.3 55 367 54.7 367.3 54.3Z" fill="white"/>
<path d="M427 54.5C427 54.2 427.2 54 427.5 54C427.8 54 428 54.2 428 54.5C428 54.8 427.8 55 427.5 55C427.2 55 427 54.8 427 54.5Z" fill="white"/>
<path d="M137 49C137 48.5 137.5 48 138.1 48C138.6 48 138.8 48.5 138.5 49C138.2 49.6 137.7 50 137.4 50C137.2 50 137 49.6 137 49Z" fill="white"/>
<path d="M279.5 49C279.2 48.5 279.4 48 279.9 48C280.5 48 281 48.5 281 49C281 49.6 280.8 50 280.6 50C280.3 50 279.8 49.6 279.5 49Z" fill="white"/>
<path d="M337 49C337 48.5 337.5 48 338 48C338.6 48 339 48.5 339 49C339 49.6 338.6 50 338 50C337.5 50 337 49.6 337 49Z" fill="white"/>
<path d="M397 47.9999C397 47.2999 397.3 46.9999 397.7 47.2999C398 47.6999 398 48.2999 397.7 48.6999C397.3 48.9999 397 48.6999 397 47.9999Z" fill="white"/>
<path d="M332 42.9999C332 42.2999 332.3 41.9999 332.7 42.2999C333 42.6999 333 43.2999 332.7 43.6999C332.3 43.9999 332 43.6999 332 42.9999Z" fill="white"/>
<path d="M143 41.9001C143 41.4001 143.5 41.2001 144 41.5001C144.6 41.8001 145 42.3001 145 42.6001C145 42.8001 144.6 43.0001 144 43.0001C143.5 43.0001 143 42.5001 143 41.9001Z" fill="white"/>
<path d="M433 36C433 35.5 433.5 35 434.1 35C434.6 35 434.8 35.5 434.5 36C434.2 36.6 433.7 37 433.4 37C433.2 37 433 36.6 433 36Z" fill="white"/>
<path d="M84 30.9999C84 30.2999 84.3 29.9999 84.7 30.2999C85 30.6999 85 31.2999 84.7 31.6999C84.3 31.9999 84 31.6999 84 30.9999Z" fill="white"/>
<path d="M107 31C107 30.5 107.5 30 108 30C108.6 30 109 30.5 109 31C109 31.6 108.6 32 108 32C107.5 32 107 31.6 107 31Z" fill="white"/>
<path d="M155 30.9999C155 30.2999 155.3 29.9999 155.7 30.2999C156 30.6999 156 31.2999 155.7 31.6999C155.3 31.9999 155 31.6999 155 30.9999Z" fill="white"/>
<path d="M284.5 31C284.2 30.5 284.4 30 284.9 30C285.5 30 286 30.5 286 31C286 31.6 285.8 32 285.6 32C285.3 32 284.8 31.6 284.5 31Z" fill="white"/>
<path d="M415 31.5C415 31.2 415.2 31 415.5 31C415.8 31 416 31.2 416 31.5C416 31.8 415.8 32 415.5 32C415.2 32 415 31.8 415 31.5Z" fill="white"/>
<path d="M428 28.9999C430 27.6999 431.3 27.6999 430.5 28.9999C430.2 29.5999 429.1 29.9999 428.2 29.9999C426.7 29.9999 426.7 29.7999 428 28.9999Z" fill="white"/>
<path d="M137 25C137 24.5 137.5 24 138 24C138.6 24 139 24.5 139 25C139 25.6 138.6 26 138 26C137.5 26 137 25.6 137 25Z" fill="white"/>
<path d="M279 24.9999C279 24.2999 279.3 23.9999 279.7 24.2999C280 24.6999 280 25.2999 279.7 25.6999C279.3 25.9999 279 25.6999 279 24.9999Z" fill="white"/>
<path d="M143 18.9001C143 18.4001 143.5 18.2001 144 18.5001C144.6 18.8001 145 19.3001 145 19.6001C145 19.8001 144.6 20.0001 144 20.0001C143.5 20.0001 143 19.5001 143 18.9001Z" fill="white"/>
<path d="M225.5 19C225.8 18.5 226.5 18 227.1 18C227.6 18 228 18.5 228 19C228 19.6 227.3 20 226.4 20C225.6 20 225.2 19.6 225.5 19Z" fill="white"/>
<path d="M403 18.9001C403 18.4001 403.5 18.2001 404 18.5001C404.6 18.8001 405 19.3001 405 19.6001C405 19.8001 404.6 20.0001 404 20.0001C403.5 20.0001 403 19.5001 403 18.9001Z" fill="white"/>
<path d="M285.3 18.3C285.7 18 286.3 18 286.7 18.3C287 18.7 286.7 19 286 19C285.3 19 285 18.7 285.3 18.3Z" fill="white"/>
<path d="M137 13C137 12.5 137.5 12 138 12C138.6 12 139 12.5 139 13C139 13.6 138.6 14 138 14C137.5 14 137 13.6 137 13Z" fill="white"/>
<path d="M279 12.9999C279 12.2999 279.3 11.9999 279.7 12.2999C280 12.6999 280 13.2999 279.7 13.6999C279.3 13.9999 279 13.6999 279 12.9999Z" fill="white"/>
<path d="M36 8C36 7.5 36.7 7 37.6 7C38.4 7 38.8 7.5 38.5 8C38.2 8.6 37.5 9 36.9 9C36.4 9 36 8.6 36 8Z" fill="white"/>
<path d="M143 7.4C143 6.6 143.5 6.2 144 6.5C144.6 6.9 144.8 7.6 144.5 8.1C143.6 9.5 143 9.2 143 7.4Z" fill="white"/>
<path d="M249 8C249 7.5 249.5 7 250 7C250.6 7 251 7.5 251 8C251 8.6 250.6 9 250 9C249.5 9 249 8.6 249 8Z" fill="white"/>
<path d="M107 7C107 6.5 107.4 6 107.9 6C108.5 6 109.2 6.5 109.5 7C109.8 7.6 109.4 8 108.6 8C107.7 8 107 7.6 107 7Z" fill="white"/>
<path d="M155 7.5C155 7.2 155.2 7 155.5 7C155.8 7 156 7.2 156 7.5C156 7.8 155.8 8 155.5 8C155.2 8 155 7.8 155 7.5Z" fill="white"/>
<path d="M415 7.5C415 7.2 415.2 7 415.5 7C415.8 7 416 7.2 416 7.5C416 7.8 415.8 8 415.5 8C415.2 8 415 7.8 415 7.5Z" fill="white"/>
</g>
<defs>
<clipPath id="clip0_1289_207">
<rect width="442" height="64" fill="white"/>
</clipPath>
</defs>
</svg>
