<svg width="620" height="70" viewBox="0 0 620 70" fill="none" xmlns="http://www.w3.org/2000/svg">
<g clip-path="url(#clip0_1289_685)">
<path d="M188 68.9001C176.5 65.6001 171.2 60.8001 167.4 50.3001C165.1 43.9001 164.8 42.0001 165.2 33.3001C165.5 25.9001 166.2 22.2001 168 18.0001C170.7 11.8001 172 10.2001 173.7 10.7001C174.3 10.9001 175 10.1001 175.2 8.80011C175.7 5.10011 186.8 0.100113 194.5 0.100113C201.8 0.00011314 205 0.800113 205 2.60011C205 4.20011 206.6 4.50011 207.5 3.00011C208.8 0.900113 216.6 6.30011 220.4 12.0001C222.7 15.6001 226 26.9001 226 31.4001C226 32.7001 225.4 34.1001 224.8 34.4001C223.8 34.9001 223.8 35.1001 224.8 35.6001C225.4 35.9001 226 36.9001 226 37.8001C226 40.8001 222.7 52.5001 221.2 55.0001C217.2 61.5001 208.9 68.2001 207.5 66.0001C206.6 64.5001 205 64.8001 205 66.4001C205 67.2001 204.4 68.0001 203.7 68.3001C200.6 69.5001 191.3 69.8001 188 68.9001ZM200.8 52.6001C202.5 52.0001 204 51.0001 204 50.4001C204 49.7001 204.9 47.3001 206 44.9001C210.2 35.6001 207.1 20.2001 200.3 16.7001C195.7 14.4001 193.9 14.5001 189.7 17.7001C186.7 19.9001 185.6 21.9001 183.9 27.4001C181.9 33.6001 181.9 34.7001 183 39.6001C183.7 42.6001 185.1 46.3001 186.1 48.0001C188.4 51.7001 193.9 55.2001 196 54.4001C196.8 54.0001 199 53.2001 200.8 52.6001Z" fill="#242B2F"/>
<path d="M437.3 67.5C437 66.7 437.8 64.9 438.9 63.4C440.1 61.9 441 60 441 59C441 58.1 442.8 52.2 445.1 45.9C447.4 39.6 449.5 33.4 449.7 32C450 30.6 450.6 29.1 451 28.5C451.4 28 453 23.5 454.5 18.5C456.1 13.5 458.4 7.8 459.7 5.8C462 2.1 462.2 2 467.8 2C472.6 2 474 2.4 475.9 4.3C477.1 5.7 480.7 14.3 484.1 24.1C487.4 33.7 491.9 46.6 494 52.9C496.2 59.2 498.4 64.6 498.9 65C499.5 65.3 499.1 66.1 498 66.8C496.4 67.8 496.2 67.7 496.6 66.5C497 65.7 496.7 65 496.1 65C495.5 65 495 65.7 495 66.5C495 67.5 494 68 492.1 68C488.7 68 483.6 64.1 481.5 60C480.6 58.3 478.6 56.7 476.5 56C471.9 54.5 455.4 55.2 455.8 56.8C455.9 57.5 454.8 58 453 58C449.6 58 449.5 58.2 451.2 61C453 63.8 450.9 65.5 443.7 67.3C438.8 68.6 437.8 68.6 437.3 67.5ZM469.6 37.4C469.3 36.5 469 34.4 469 32.7L468.9 29.5L467.6 32C466.9 33.4 465.9 35.5 465.6 36.8C465 38.7 465.2 39 467.5 39C469.6 39 470.1 38.6 469.6 37.4Z" fill="#242B2F"/>
<path d="M500.4 67.8002C500 67.1002 500.1 67.0002 500.8 67.4002C501.5 67.8002 502 68.3002 502 68.6002C502 69.4002 501.1 69.0002 500.4 67.8002Z" fill="#242B2F"/>
<path d="M560.999 68.3001C557.999 68.1001 554.499 67.8001 553.299 67.5001C550.699 66.9001 543.999 60.3001 543.999 58.4001C543.999 56.8001 540.399 50.9001 536.699 46.5001C535.099 44.5001 534.199 42.6001 534.599 41.6001C535.399 39.6001 533.599 39.5001 531.699 41.4001C530.999 42.2001 529.199 43.0001 527.899 43.2001C525.499 43.5001 525.499 43.7001 525.399 54.4001C525.199 63.7001 524.899 65.6001 523.399 66.7001C520.699 68.7001 515.599 68.3001 513.399 65.9001C511.599 63.9001 511.499 61.8001 511.299 35.6001C511.099 14.9001 511.399 6.80009 512.299 5.00009C513.499 2.50009 513.799 2.50009 527.799 2.20009C537.799 2.00009 542.699 2.30009 544.299 3.20009C545.499 3.90009 547.599 4.50009 548.899 4.70009C554.099 5.20009 558.999 12.3001 558.999 19.5001C558.999 25.7001 556.699 30.2001 551.399 34.6001L547.099 38.3001L549.499 41.2001C550.899 42.8001 551.999 45.0001 551.999 46.0001C551.999 47.0001 552.399 48.0001 552.799 48.2001C553.299 48.4001 555.699 51.7001 558.199 55.5001C560.699 59.4001 563.999 63.6001 565.399 64.9001C567.899 67.2001 568.799 69.2001 567.299 68.8001C566.799 68.7001 563.999 68.5001 560.999 68.3001ZM538.099 24.4001C541.899 22.5001 541.599 20.3001 537.099 17.3001C534.099 15.3001 533.399 15.2001 531.699 16.3001C528.699 18.3001 527.899 21.4001 529.599 23.9001C531.399 26.4001 533.999 26.6001 538.099 24.4001Z" fill="#242B2F"/>
<path d="M16.1997 67.0001C13.1997 65.8001 11.2997 61.1001 10.0997 51.9001C9.09975 44.6001 7.09975 34.1001 4.89975 24.7001C4.29975 22.1001 4.09975 18.8001 4.39975 17.5001C4.79975 16.1001 4.69975 15.0001 4.19975 15.0001C3.79975 15.0001 2.89975 12.6001 2.29975 9.80009C1.69975 6.90008 0.899748 3.40008 0.499748 2.00008C0.0997476 0.600085 0.199748 8.49217e-05 0.699748 0.600085C1.09975 1.20008 3.99975 1.70008 6.89975 1.80008C11.2997 1.90008 12.6997 2.30008 14.0997 4.10008C15.7997 6.40008 19.7997 28.1001 20.8997 41.8001C21.5997 50.6001 23.5997 52.6001 24.2997 45.3001C24.4997 42.7001 25.6997 35.6001 26.9997 29.5001C28.1997 23.5001 29.5997 16.3001 30.0997 13.7001C30.4997 11.0001 31.6997 7.40008 32.7997 5.70008C34.3997 2.80008 35.1997 2.50008 39.7997 2.20008C43.9997 2.00008 45.2997 2.30008 46.6997 4.00008C48.3997 5.90008 54.5997 29.2001 55.4997 37.0001C55.6997 38.9001 55.8997 40.5001 55.9997 40.5001C56.0997 40.5001 56.2997 42.1001 56.5997 44.0001C57.6997 52.6001 59.4997 52.0001 60.3997 42.8001C60.6997 38.8001 61.1997 34.4001 61.3997 33.0001C61.5997 31.6001 62.2997 26.9001 62.8997 22.5001C65.3997 5.50009 66.7998 2.50008 72.7998 1.40008C78.5998 0.300085 79.1997 3.50008 75.9997 18.3001C74.8997 23.4001 72.3997 35.6001 70.3997 45.5001C66.3997 65.7001 65.2997 68.0001 59.0997 68.0001C51.5997 68.0001 49.1997 64.8001 46.9997 52.5001C46.4997 49.8001 45.3997 44.4001 44.4997 40.5001C42.5997 31.7001 42.0997 29.1001 41.2997 21.2001C40.8997 17.2001 40.3997 15.3001 39.8997 16.2001C39.3997 16.9001 38.9997 18.6001 38.9997 19.9001C38.9997 22.0001 36.7997 32.6001 33.8997 44.0001C33.4997 45.9001 32.3997 51.1001 31.5997 55.5001C30.3997 61.7001 29.4997 64.0001 27.4997 65.8001C24.7997 68.1001 20.2997 68.6001 16.1997 67.0001Z" fill="#242B2F"/>
<path d="M94.6001 65.8C93.2001 63.9 93.0001 59.2 93.0001 34.5C93.0001 1.5 92.9001 1.7 99.9001 1.8C105.9 1.9 106.9 3.7 106.8 13.6C106.8 18 107 22.5 107.4 23.7C108.2 26.3 111.6 27 122.4 27C133.2 27 134.3 26.2 134.8 17.6C135 14 135.6 11 136.1 11C136.6 11 137 10.5 137 9.9C137 9.4 136.5 9.2 135.9 9.6C135.1 10 135 9.2 135.5 6.9C136.5 2.3 136.7 2 139.6 2C141.1 2 142 2.6 142 3.5C142 4.3 142.5 5 143 5C143.6 5 144 4.3 144 3.4C144 2.4 144.7 2 146.3 2.2C148.4 2.5 148.5 3 148.8 10.9C148.9 16.7 148.6 19.6 147.8 20.1C146.9 20.7 146.9 21.2 147.8 22.3C148.7 23.4 149 29.6 148.9 44.9C148.8 68.4 148.9 68 141.8 68C136 68 135.7 67.3 135 53.6C134.6 45.9 133.9 40.5 133.1 39.7C131.3 37.9 113.2 37.6 110 39.2C107.9 40.4 107.5 41.4 107.2 46C107 49.6 106.3 51.8 105.2 52.6C103.6 53.8 103.6 53.9 105.3 54.5C107.5 55.4 107.6 62.1 105.4 65.5C103.2 68.9 96.8001 69 94.6001 65.8Z" fill="#242B2F"/>
<path d="M279.2 67C276.9 66 274.8 62.2 275.7 60.6C276 60.2 275.8 59.5 275.2 59.1C274.3 58.6 270.1 37.7 269.5 30.5C269.4 28.9 268.7 26.2 268.1 24.7C267.5 23.1 266.7 18.6 266.4 14.7C266 10.5 265 6.10003 263.9 4.20003C261.5 -0.099966 261.5 -0.0999658 265 1.10003C266.7 1.70003 268 2.60003 268 3.10003C268 3.60003 268.7 4.00003 269.5 4.00003C270.3 4.00003 271 3.60003 271 3.00003C271 1.50003 275.6 1.80003 276.9 3.40003C278.4 5.10003 281 17.4 281.3 24.3C281.5 27.2 281.9 30 282.2 30.5C282.5 31.1 283.1 36.1 283.5 41.8C283.9 47.4 284.7 52.3 285.1 52.6C285.6 52.9 286 52.5 286 51.7C286 50.9 286.7 49.7 287.4 49C288.5 48.2 288.6 47.2 288 45.5C287.5 44.1 287.5 41.8 288.1 39.8C288.6 38 289.7 32.7 290.5 28C291.3 23.3 292.4 17.2 292.9 14.3C293.9 9.00003 296.2 3.60003 298 2.50003C299.8 1.40003 305.4 1.60003 305.8 2.80003C306 3.50003 307 4.00003 308 4.00003C310.8 4.00003 311.7 5.80003 313.9 16.5C315 22 316.7 28.9 317.5 31.9C318.4 34.8 318.9 37.7 318.7 38.4C318.4 39.1 318.8 41.8 319.5 44.5C320.7 49.6 320.5 53 318.8 53C318.3 53 318.2 53.5 318.5 54C318.8 54.6 319.8 55 320.6 55C321.6 55 322 53.7 322 50.2C322 47.5 322.3 45 322.7 44.7C323 44.3 323.4 43 323.5 41.7C324.5 31.3 325.4 24.9 326.1 24.4C326.6 24.1 327 21.5 327 18.7C327 11.7 329.2 4.60003 331.5 4.10003C332.5 3.90003 334 3.20003 334.8 2.40003C336.4 0.800034 340.6 0.500034 341.5 2.00003C341.8 2.50003 341.7 4.70003 341.1 6.70003C340.6 8.80003 339.4 14.5 338.5 19.5C336.7 29.3 334.8 38.7 333 46.5C332.4 49.3 331.7 53.1 331.4 55C330.2 63.7 327.2 68 322.3 68C320.7 68 320.2 67.6 320.6 66.5C321.3 64.7 320.6 64.6 317.9 66.3C316.1 67.3 315.6 67.2 313.9 65.1C311.6 62.3 311.5 61 313.5 61C314.3 61 315 60.6 315 60C315 59.5 314.4 59 313.6 59C311.4 59 311.2 58.4 308.4 43.9C306.5 34.5 306.1 30.5 306.9 30.2C307.5 30 308 29.2 308 28.4C308 27.6 307.4 27.3 306.5 27.6C305.4 28 304.9 27 304.4 23.1C304 20.3 303.4 17.8 303 17.5C301.8 16.8 299.9 22.1 300.6 24.2C300.9 25.3 300.5 28.9 299.6 32.3C296.2 46.1 294.7 52.6 294.5 55.5C293.5 65.6 287.3 70.2 279.2 67Z" fill="#242B2F"/>
<path d="M360 67.3C356.1 65.7 356 65 356 34.7C356 7.5 356.1 5.2 357.8 3.7C360 1.7 368.5 1.4 369.4 3.3C369.9 4.2 370.1 4.2 370.6 3.3C370.9 2.5 373.2 2 376.6 2C380.8 2 382 2.3 382 3.6C382 4.4 382.5 4.8 383 4.5C383.6 4.1 383.8 3.4 383.5 2.9C382.6 1.5 393.3 1.9 395.3 3.4C397.4 5 397.5 9.3 395.5 11C394.7 11.7 389.2 12.6 383.3 13C368.9 14.1 368.9 14.1 369.6 19.8C370.3 25.9 371.4 27 376.4 27C378.7 27 381.2 27.6 381.8 28.2C382.8 29.2 383.2 29.2 383.9 28.2C384.8 26.7 389.4 27 392.6 28.8C395.6 30.4 396.3 32.9 394.5 35.6C393.1 37.8 392.2 38 385.4 38C381.3 38 376 38.5 373.7 39.1L369.5 40.1V47.6C369.5 51.6 369.5 55 369.5 55.1C369.5 55.2 375.3 55.5 382.3 55.9C393.3 56.5 395.4 56.9 397.1 58.7C399.9 61.5 398.8 64.8 394.4 66.6C390.5 68.2 371 68.6 371 67C371 66.5 370.5 66 369.9 66C369.4 66 369.2 66.5 369.5 67C370.2 68.1 362.6 68.3 360 67.3Z" fill="#242B2F"/>
<path d="M582.2 67.3C580.9 67 579.5 65.8 579 64.6C577.8 61.3 577.9 23.8 579.2 22.3C579.9 21.4 579.9 21 579.1 21C577.6 21 577.6 11.3 579.1 10.4C579.9 10 579.8 9.5 578.9 8.9C577.7 8.2 577.8 7.6 579 5.3C580.5 2.7 581 2.5 588.3 2.2C594.7 2 596 2.2 596 3.5C596 4.3 596.7 5 597.5 5C598.3 5 599 4.3 599 3.5C599 2.4 600.2 2 604 2C607.8 2 609 2.4 609 3.5C609 4.3 609.5 5 610.1 5C610.7 5 611 4.3 610.6 3.5C610.2 2.4 610.8 2 613.3 2C617.2 2 618.5 2.8 619.4 5.6C621 10.8 616.8 13 605.6 13C595.8 13 594.2 13.6 592 18.2L590.2 22.1L593.5 25.8C596.2 28.7 597.2 29.2 598.2 28.2C598.8 27.6 601.3 27 603.6 27C607.1 27 608 27.4 608.6 29.2C609.2 31.3 609.3 31.3 610.4 29.3C611.3 27.6 612 27.5 614.8 28.2C617.5 28.9 618 29.5 618 32C618 34.2 617.6 34.8 616.5 34.4C615.7 34 615 34.3 615 34.9C615 35.5 615.5 36 616.2 36C617 36 617 36.3 616.5 36.9C615.9 37.4 610.9 38 605.3 38.2C599.2 38.4 594.6 39 593.9 39.7C591.9 41.7 591.5 50.6 593.4 53.5C595 55.9 595.5 56 605 56C618.1 56 620 56.8 620 62C620 65.4 619.6 66.2 617.4 67C614.9 68 595.4 68.3 597.8 67.3C598.4 67.1 598.8 66.4 598.4 65.9C597.6 64.5 596 64.8 596 66.5C596 67.7 594.8 68 590.3 67.9C587.1 67.8 583.5 67.5 582.2 67.3Z" fill="#242B2F"/>
<path d="M193.1 66.4001C193.1 65.3001 193.4 65.0001 193.7 65.8001C194 66.5001 193.9 67.4001 193.6 67.7001C193.3 68.1001 193 67.5001 193.1 66.4001Z" fill="white"/>
<path d="M281 66C281 65.5 281.5 65 282 65C282.6 65 283 65.5 283 66C283 66.6 282.6 67 282 67C281.5 67 281 66.6 281 66Z" fill="white"/>
<path d="M199 59.9999C199 59.2999 199.3 58.9999 199.7 59.2999C200 59.6999 200 60.2999 199.7 60.6999C199.3 60.9999 199 60.6999 199 59.9999Z" fill="white"/>
<path d="M287 60C287 59.5 287.5 59 288 59C288.6 59 289 59.5 289 60C289 60.6 288.6 61 288 61C287.5 61 287 60.6 287 60Z" fill="white"/>
<path d="M445 54.2C445 53 446.9 51.6 447.6 52.3C447.8 52.5 447.4 53.3 446.5 54C445.6 54.8 445 54.8 445 54.2Z" fill="white"/>
<path d="M457.7 54.3C456.5 53.1 457 52.1 458.5 52.6C459.3 53 460 53.6 460 54.1C460 55.2 458.6 55.3 457.7 54.3Z" fill="white"/>
<path d="M180.5 53C180.8 52.5 181.3 52 181.6 52C181.8 52 182 52.5 182 53C182 53.6 181.5 54 180.9 54C180.4 54 180.2 53.6 180.5 53Z" fill="white"/>
<path d="M281.3 53.3C281.7 53 282.3 53 282.7 53.3C283 53.7 282.7 54 282 54C281.3 54 281 53.7 281.3 53.3Z" fill="white"/>
<path d="M482.8 53.3C483.5 53 484.4 53.1 484.7 53.4C485.1 53.7 484.5 54 483.4 53.9C482.3 53.9 482 53.6 482.8 53.3Z" fill="white"/>
<path d="M274 47.6C274 46.7 274.5 46 275 46C275.6 46 276 46.4 276 46.9C276 47.5 275.6 48.2 275 48.5C274.5 48.8 274 48.4 274 47.6Z" fill="white"/>
<path d="M312 47.6C312 46.7 312.5 46 313 46C313.6 46 314 46.4 314 46.9C314 47.5 313.6 48.2 313 48.5C312.5 48.8 312 48.4 312 47.6Z" fill="white"/>
<path d="M325 47.5C325 46.7 325.5 46 326 46C326.6 46 327 46.7 327 47.5C327 48.3 326.6 49 326 49C325.5 49 325 48.3 325 47.5Z" fill="white"/>
<path d="M451 47.5C451 46.7 451.5 46 452 46C452.6 46 453 46.7 453 47.5C453 48.3 452.6 49 452 49C451.5 49 451 48.3 451 47.5Z" fill="white"/>
<path d="M211 47C211 46.5 211.5 46 212 46C212.6 46 213 46.5 213 47C213 47.6 212.6 48 212 48C211.5 48 211 47.6 211 47Z" fill="white"/>
<path d="M363 46.9001C363 46.4001 363.5 46.2001 364 46.5001C364.6 46.8001 365 47.3001 365 47.6001C365 47.8001 364.6 48.0001 364 48.0001C363.5 48.0001 363 47.5001 363 46.9001Z" fill="white"/>
<path d="M464 46.9999C464 46.2999 464.3 45.9999 464.7 46.2999C465 46.6999 465 47.2999 464.7 47.6999C464.3 47.9999 464 47.6999 464 46.9999Z" fill="white"/>
<path d="M476.3 47.3C476.7 47 477.3 47 477.7 47.3C478 47.7 477.7 48 477 48C476.3 48 476 47.7 476.3 47.3Z" fill="white"/>
<path d="M489 46.9001C489 46.4001 489.5 46.2001 490 46.5001C490.6 46.8001 491 47.3001 491 47.6001C491 47.8001 490.6 48.0001 490 48.0001C489.5 48.0001 489 47.5001 489 46.9001Z" fill="white"/>
<path d="M539 47C539 46.5 539.7 46 540.6 46C541.4 46 541.8 46.5 541.5 47C541.2 47.6 540.5 48 539.9 48C539.4 48 539 47.6 539 47Z" fill="white"/>
<path d="M168 41.5C168 41.2 168.2 41 168.5 41C168.8 41 169 41.2 169 41.5C169 41.8 168.8 42 168.5 42C168.2 42 168 41.8 168 41.5Z" fill="white"/>
<path d="M584 40.9999C584 40.2999 584.3 39.9999 584.7 40.2999C585 40.6999 585 41.2999 584.7 41.6999C584.3 41.9999 584 41.6999 584 40.9999Z" fill="white"/>
<path d="M312.7 35.4C311.9 34.6 312.8 33 314.1 33C314.6 33 315 33.7 315 34.5C315 36 313.8 36.5 312.7 35.4Z" fill="white"/>
<path d="M363 35C363 34.5 363.5 34 364.1 34C364.6 34 364.8 34.5 364.5 35C364.2 35.6 363.7 36 363.4 36C363.2 36 363 35.6 363 35Z" fill="white"/>
<path d="M388 35C388 34.5 388.5 34 389 34C389.6 34 390 34.5 390 35C390 35.6 389.6 36 389 36C388.5 36 388 35.6 388 35Z" fill="white"/>
<path d="M451 35C451 34.5 451.5 34 452 34C452.6 34 453 34.5 453 35C453 35.6 452.6 36 452 36C451.5 36 451 35.6 451 35Z" fill="white"/>
<path d="M476 34.4C476 33.6 476.5 33.2 477 33.5C477.6 33.8 478 34.5 478 35.1C478 35.6 477.6 36 477 36C476.5 36 476 35.3 476 34.4Z" fill="white"/>
<path d="M527 34.5C527 34.2 527.2 34 527.5 34C527.8 34 528 34.2 528 34.5C528 34.8 527.8 35 527.5 35C527.2 35 527 34.8 527 34.5Z" fill="white"/>
<path d="M482.5 29C482.2 28.5 482.4 28 482.9 28C483.5 28 484 28.5 484 29C484 29.6 483.8 30 483.6 30C483.3 30 482.8 29.6 482.5 29Z" fill="white"/>
<path d="M218 27.9001C218 27.4001 218.5 27.2001 219 27.5001C219.6 27.8001 220 28.3001 220 28.6001C220 28.8001 219.6 29.0001 219 29.0001C218.5 29.0001 218 28.5001 218 27.9001Z" fill="white"/>
<path d="M293.3 28.3C293.7 28 294.3 28 294.7 28.3C295 28.7 294.7 29 294 29C293.3 29 293 28.7 293.3 28.3Z" fill="white"/>
<path d="M331.5 28C331.8 27.5 332.3 27 332.6 27C332.8 27 333 27.5 333 28C333 28.6 332.5 29 331.9 29C331.4 29 331.2 28.6 331.5 28Z" fill="white"/>
<path d="M521 28.5C521 28.2 521.2 28 521.5 28C521.8 28 522 28.2 522 28.5C522 28.8 521.8 29 521.5 29C521.2 29 521 28.8 521 28.5Z" fill="white"/>
<path d="M546 28.5C546 28.2 546.2 28 546.5 28C546.8 28 547 28.2 547 28.5C547 28.8 546.8 29 546.5 29C546.2 29 546 28.8 546 28.5Z" fill="white"/>
<path d="M584 27.9999C584 27.2999 584.3 26.9999 584.7 27.2999C585 27.6999 585 28.2999 584.7 28.6999C584.3 28.9999 584 28.6999 584 27.9999Z" fill="white"/>
<path d="M174 22.6001C174 21.8001 174.5 20.8001 175 20.5001C175.6 20.2001 176 20.8001 176 21.9001C176 23.1001 175.6 24.0001 175 24.0001C174.5 24.0001 174 23.4001 174 22.6001Z" fill="white"/>
<path d="M312 22.1001C312 19.6001 312.6 19.4001 313.3 21.5001C313.7 22.3001 313.5 23.2001 313 23.5001C312.4 23.9001 312 23.2001 312 22.1001Z" fill="white"/>
<path d="M362.5 23C362.2 22.5 362.4 22 362.9 22C363.5 22 364 22.5 364 23C364 23.6 363.8 24 363.6 24C363.3 24 362.8 23.6 362.5 23Z" fill="white"/>
<path d="M476.5 22.8999C476.1 22.2999 476 21.5999 476.3 21.2999C477 20.5999 479 21.8999 479 23.0999C479 24.2999 477.3 24.2999 476.5 22.8999Z" fill="white"/>
<path d="M212 21.9001C212 21.4001 212.5 21.2001 213 21.5001C213.6 21.8001 214 22.3001 214 22.6001C214 22.8001 213.6 23.0001 213 23.0001C212.5 23.0001 212 22.5001 212 21.9001Z" fill="white"/>
<path d="M275 22C275 21.5 275.5 21 276.1 21C276.6 21 276.8 21.5 276.5 22C276.2 22.6 275.7 23 275.4 23C275.2 23 275 22.6 275 22Z" fill="white"/>
<path d="M180 16C180 15.5 180.5 15 181 15C181.6 15 182 15.5 182 16C182 16.6 181.6 17 181 17C180.5 17 180 16.6 180 16Z" fill="white"/>
<path d="M470 14.9001C470 14.4001 470.5 14.2001 471 14.5001C471.6 14.8001 472 15.3001 472 15.6001C472 15.8001 471.6 16.0001 471 16.0001C470.5 16.0001 470 15.5001 470 14.9001Z" fill="white"/>
<path d="M521 15.5C521 15.2 521.2 15 521.5 15C521.8 15 522 15.2 522 15.5C522 15.8 521.8 16 521.5 16C521.2 16 521 15.8 521 15.5Z" fill="white"/>
<path d="M300 10C300 9.5 300.5 9 301.1 9C301.6 9 301.8 9.5 301.5 10C301.2 10.6 300.7 11 300.4 11C300.2 11 300 10.6 300 10Z" fill="white"/>
<path d="M337.5 10C337.2 9.5 337.4 9 337.9 9C338.5 9 339 9.5 339 10C339 10.6 338.8 11 338.6 11C338.3 11 337.8 10.6 337.5 10Z" fill="white"/>
<path d="M464 9.90008C464 9.40008 464.5 9.20008 465 9.50008C465.6 9.80008 466 10.3001 466 10.6001C466 10.8001 465.6 11.0001 465 11.0001C464.5 11.0001 464 10.5001 464 9.90008Z" fill="white"/>
<path d="M527 9.99992C527 9.29992 527.3 8.99992 527.7 9.29992C528 9.69992 528 10.2999 527.7 10.6999C527.3 10.9999 527 10.6999 527 9.99992Z" fill="white"/>
<path d="M539 10C539 9.5 539.5 9 540.1 9C540.6 9 540.8 9.5 540.5 10C540.2 10.6 539.7 11 539.4 11C539.2 11 539 10.6 539 10Z" fill="white"/>
<path d="M551.6 9.5C551.3 8.7 551.5 8 552 8C553.3 8 554.2 9.8 553.1 10.4C552.6 10.7 552 10.3 551.6 9.5Z" fill="white"/>
<path d="M186.3 9.29995C186.7 8.99995 187.3 8.99995 187.7 9.29995C188 9.69995 187.7 9.99995 187 9.99995C186.3 9.99995 186 9.69995 186.3 9.29995Z" fill="white"/>
<path d="M199 8.99992C199 8.29992 199.3 7.99992 199.7 8.29992C200 8.69992 200 9.29992 199.7 9.69992C199.3 9.99992 199 9.69992 199 8.99992Z" fill="white"/>
<path d="M211.8 9.30004C212.5 9.00004 213.4 9.10003 213.7 9.40003C214.1 9.70003 213.5 10 212.4 9.90003C211.3 9.90003 211 9.60004 211.8 9.30004Z" fill="white"/>
<path d="M363.3 9.29995C363.7 8.99995 364.3 8.99995 364.7 9.29995C365 9.69995 364.7 9.99995 364 9.99995C363.3 9.99995 363 9.69995 363.3 9.29995Z" fill="white"/>
<path d="M602.3 9.29995C602.7 8.99995 603.3 8.99995 603.7 9.29995C604 9.69995 603.7 9.99995 603 9.99995C602.3 9.99995 602 9.69995 602.3 9.29995Z" fill="white"/>
<path d="M534 3.5C534 3.2 534.2 3 534.5 3C534.8 3 535 3.2 535 3.5C535 3.8 534.8 4 534.5 4C534.2 4 534 3.8 534 3.5Z" fill="white"/>
</g>
<defs>
<clipPath id="clip0_1289_685">
<rect width="620" height="70" fill="white"/>
</clipPath>
</defs>
</svg>
