<svg width="23" height="22" viewBox="0 0 23 22" fill="none" xmlns="http://www.w3.org/2000/svg">
<path d="M22.1379 11.0663C22.1376 8.95121 21.5312 6.88052 20.3906 5.09935C19.25 3.31819 17.623 1.90113 15.702 1.01594C13.7811 0.13075 11.6468 -0.185499 9.55171 0.104631C7.45663 0.394761 5.48855 1.27912 3.88047 2.65301C2.27238 4.0269 1.09163 5.8328 0.477999 7.85689C-0.135635 9.88099 -0.156452 12.0385 0.418009 14.0741C0.992471 16.1097 2.13816 17.938 3.71943 19.3427C5.30071 20.7473 7.25135 21.6695 9.34044 22V14.2654H6.53062V11.0663H9.34044V8.62748C9.34044 5.85374 10.9929 4.32155 13.5208 4.32155C14.3509 4.33308 15.179 4.4053 15.9986 4.53762V7.2613H14.603C14.1826 7.20568 13.7573 7.31923 13.4205 7.57703C13.0838 7.83482 12.8632 8.21576 12.8071 8.63614C12.7917 8.75374 12.7893 8.87267 12.7999 8.9908V11.0663H15.8696L15.3787 14.2654H12.7994V22C15.403 21.5881 17.7741 20.2605 19.486 18.2562C21.1979 16.2518 22.1383 13.7022 22.1379 11.0663Z" fill="#252B2F"/>
</svg>
